<?xml version="1.0" encoding="UTF-8"?>
<svg id="Layer_1" data-name="Layer 1" xmlns="http://www.w3.org/2000/svg" viewBox="0 0 241.18 291.3">
  <defs>
    <style>
      .cls-1 {
        fill: #00715b;
      }

      .cls-2 {
        fill: #ff9a04;
      }

      .cls-3 {
        fill: #f6f4f4;
      }
    </style>
  </defs>
  <g>
    <g>
      <path class="cls-3" d="M100.58,62.98s-.07.03-.1.04h-.04c-.33.08-.65.17-.97.25-.6.16-1.2.32-1.8.49-1.29.37-2.56.78-3.83,1.2-2.08.7-4.09,1.54-6.07,2.48-3.2,1.52-6.17,3.44-9.11,5.41-1.49,1-2.97,1.99-4.48,2.95-.42.27-.84.53-1.26.79-.02.01-.04.03-.06.04-.02,0-.03.02-.07.04-.25.15-.49.3-.74.44-1.31.77-2.52,1.57-3.63,2.62-2.36,2.25-4.87,4.35-7.32,6.51-2.09,1.85-4.27,3.66-5.74,6.06-.39.63-.76,1.27-1.13,1.91.03.03.07.07.1.13.29.47-.09.78-.41.43-1.16,2.07-2.22,4.19-3.27,6.31-3.34,6.83-6.47,13.84-8.97,21.02-.38,1.09-.75,2.19-1.1,3.29l.07.1c.04.06-.08.23-.24.43-.16.51-.32,1.01-.47,1.52.62-.45,1.2-.8,1.41-.95l.17.25s-1.09,1.16-1.99,2.05c-1.07,3.68-1.96,7.4-2.59,11.17.02.06.01.12-.03.16-.34,2.03-.6,4.07-.77,6.14-.74,8.59.45,17.14,3.24,25.29,2.84,8.29,7.15,16.06,12.38,23.08,5.1,6.84,11.07,13.08,17.83,18.3,1.55,1.19,3.13,2.33,4.76,3.4,1.76,1.16,3.56,2.14,5.12,3.56,1.73,1.59,3.95,2.49,6.14,3.26,2.11.74,4.15,1.5,6.18,2.42,8.09,3.66,16.73,6.16,25.51,7.52,8.61,1.34,17.58,1.72,26.12-.3,8.45-2,16.67-6.01,23.74-11.01,6.91-4.89,12.93-11,17.8-17.92-.88-.24-1.75-.69-2.37-1.44l.32-.03c.82-.06,1.8.11,2.8.38.06-.1.13-.19.2-.28,2.81-4.18,5.18-8.62,7.21-13.23,1.01-2.3,2.17-4.53,3.16-6.85,1.02-2.37,1.94-4.78,2.77-7.23,3.3-9.72,5.1-19.96,5.17-30.22.06-9.89-1.48-19.75-4.8-29.07-1.57-4.39-3.51-8.65-5.83-12.7-1.12-1.96-2.33-3.88-3.63-5.73-1.13-1.62-2.23-3.28-3.43-4.85-5.09-6.63-11.75-12.01-18.74-16.53-3.53-2.28-7.2-4.35-11-6.16-3.57-1.7-7.23-3.05-10.97-4.31-9.5-3.2-19.43-6.02-29.55-5.73-5.37.16-10.65,1.17-15.68,3.08v.02Z"/>
      <g>
        <path class="cls-2" d="M202.54,153.62h0c-.12-2.55-.4-5.16-.81-7.79,0-.07-.02-.13-.03-.2-.06-.38-.12-.76-.19-1.13-.02-.09-.03-.19-.05-.28-.06-.37-.13-.73-.2-1.1-.02-.1-.04-.2-.06-.29-.07-.37-.15-.74-.22-1.12,0-.05-.02-.1-.03-.15-.25-1.18-.52-2.36-.82-3.54-.03-.14-.07-.27-.1-.41-.08-.29-.15-.59-.23-.88-.05-.19-.1-.37-.15-.56-.07-.27-.15-.54-.23-.81-.06-.21-.12-.42-.18-.62-.07-.25-.15-.51-.23-.76-.07-.22-.14-.45-.21-.67-.07-.24-.15-.48-.22-.72-.08-.25-.16-.5-.24-.74-.07-.21-.14-.42-.21-.63-.15-.44-.3-.88-.46-1.32-.05-.14-.1-.29-.16-.43-.11-.31-.23-.62-.34-.93-.07-.18-.14-.36-.2-.53-.1-.27-.21-.54-.31-.81-.07-.18-.15-.36-.22-.55-.11-.26-.21-.52-.32-.78-.07-.18-.15-.35-.22-.53-.11-.26-.22-.52-.34-.78-.07-.17-.14-.33-.22-.49-.13-.28-.25-.56-.38-.83-.06-.14-.13-.27-.19-.41-.19-.41-.38-.81-.58-1.2h0c-.28-.56-.52-1.12-.74-1.69-1.16-2.94-1.85-6-4.26-8.2-.25-.28-.49-.57-.74-.85h0c-.23-.39-.48-.79-.72-1.18-.06-.1-.12-.19-.18-.29-.25-.39-.5-.79-.77-1.18-.02-.03-.04-.05-.05-.08-.25-.38-.51-.75-.77-1.12-.06-.09-.12-.17-.18-.26-.28-.4-.57-.79-.86-1.19-.02-.03-.05-.06-.07-.09-.28-.38-.57-.75-.86-1.13-.05-.07-.11-.14-.16-.21-.32-.4-.64-.8-.96-1.2-.02-.03-.05-.05-.07-.08-.32-.39-.64-.77-.97-1.16-.04-.05-.08-.09-.12-.14-.35-.41-.71-.82-1.07-1.22-.02-.02-.03-.04-.05-.05-.36-.41-.74-.81-1.11-1.21,0-.02-.03-.03-.04-.05-.39-.42-.79-.83-1.19-1.24l-.03-.03c-.82-.83-1.66-1.65-2.52-2.46h0c-1.74-1.62-3.57-3.19-5.48-4.69h0l-.13.1c-.05-.07-.09-.17-.1-.28h0c-1.15-.9-2.33-1.77-3.54-2.61-.02,0-.03-.02-.05-.03-.38-.27-.76-.53-1.15-.79l-.07-.05c-1.21-.81-2.45-1.59-3.71-2.34-.02,0-.04-.02-.06-.04-.39-.23-.77-.45-1.16-.67-.05-.03-.1-.06-.16-.09-.38-.22-.77-.43-1.16-.64-.03-.02-.06-.03-.09-.05-.86-.46-1.72-.91-2.59-1.34-.02-.01-.05-.02-.07-.03-.39-.19-.79-.38-1.18-.57-.08-.04-.15-.07-.23-.11-.36-.17-.72-.33-1.07-.49-.08-.03-.15-.07-.23-.1-.42-.18-.83-.36-1.25-.54,0,0-.02,0-.03-.01-.45-.19-.9-.37-1.35-.55,0,0-.03-.01-.04-.02-.41-.16-.82-.31-1.23-.47-.1-.04-.2-.07-.29-.11-.34-.12-.68-.24-1.01-.36-.11-.04-.22-.08-.33-.11-.35-.12-.7-.23-1.06-.35-.08-.03-.17-.05-.25-.08-.88-.27-1.76-.53-2.65-.76-.11-.03-.22-.06-.33-.08-.33-.08-.66-.17-.99-.25-.13-.03-.27-.06-.4-.09-.32-.07-.64-.14-.96-.21-.13-.03-.25-.05-.38-.08-.4-.08-.79-.16-1.19-.23-.04,0-.09-.02-.13-.02-.44-.08-.89-.15-1.33-.22-.11-.02-.22-.03-.33-.05-.33-.05-.66-.1-.99-.14-.15-.02-.29-.04-.44-.05-.3-.04-.61-.07-.91-.1-.15-.02-.3-.03-.44-.04-.33-.03-.66-.06-1-.08-.11,0-.22-.02-.33-.03-.44-.03-.88-.05-1.33-.07h-.25c-.36-.01-.72-.02-1.07-.02h-1.34c-.16,0-.31,0-.47.01-.31,0-.61.02-.92.04-.14,0-.28.01-.41.02l-1.32.09c-.88.09-2.65.27-3.53.36l-1.75.29c-.08.01-.15.02-.23.04-3.93.6-8.07-.05-11.83,1.17-.62.23-1.39.51-2.16.79-7.21,2.21-27.23,11.28-33.32,15.39-1.83,1.24-8.57,9.98-10.24,11.35-5.45,10-7.58,13.17-10.5,26.14-4.9,12.78-1,26.5,3.55,39.12,3.83,11.59,12.99,26.99,24.17,33.72,7.95,5.75,21.88,9.82,32.19,11.7h0c.89.16,1.78.3,2.67.43.4.06.8.11,1.19.16.27.03.54.07.8.1.69.08,1.38.15,2.07.21h0c.55.05,1.09.08,1.64.12.16,0,.32.02.48.03.4.02.79.04,1.19.06.17,0,.34.01.52.02.4.01.79.02,1.19.03h2.09c2.3-.02,4.6-.14,6.89-.36h0c2.18-5.16,6.6-10.09,10.37-13.02l-.39-.71.32-.42.46.84c1.2-.9,2.32-1.59,3.27-2.01,4.43-2.03,4.25-1.26,3.54,1.22-2.02,1.22-3.75,2.45-5.24,3.68l1.76,3.24-.32.42-1.82-3.34c-3.57,3.04-5.62,6.04-6.83,8.74-.87.33-1.75.63-2.64.92.03.05.06.11.09.16.5-.06,1-.13,1.5-.2h.04c.49-.07.98-.15,1.47-.23h0c1-.16,2-.35,2.99-.55h0c-.36-.95-.65-1.98-.87-2.95.54-.19.75.08.97.35.44.56.92,1.39,1.2,2.33.52-.11,1.05-.23,1.57-.36.06-.01.11-.03.17-.04.48-.11.95-.23,1.43-.35.05-.01.1-.03.15-.04.49-.13.98-.26,1.47-.4l.07-.02c.52-.15,1.04-.29,1.55-.45h0l-.11-.07.32-.42.29.19-.15.19c.65-.2,1.3-.4,1.94-.62.03,0,.06-.02.09-.03.59-.2,1.17-.4,1.76-.6.08-.03.16-.05.23-.08,1.21-.44,2.41-.9,3.6-1.39.11-.05.22-.09.33-.14.51-.21,1.01-.43,1.52-.65.08-.04.17-.07.25-.11.57-.25,1.14-.51,1.7-.77.11-.05.22-.1.32-.15.46-.22.91-.43,1.36-.66.15-.07.29-.15.44-.22.55-.27,1.09-.55,1.63-.84,3.62-1.61,7.09-3.49,10.35-5.63,3.6-2.35,6.93-5.01,9.92-7.96.15-.15.33-.33.53-.54.6-.62,1.38-1.41,1.81-1.85l.51-.61.56-.66c.63-.71,1.24-1.45,1.83-2.21.59-.76,1.17-1.54,1.73-2.33.83-1.18,1.62-2.39,2.35-3.58.24-.4.48-.8.71-1.19.13-.26.28-.54.44-.84s.33-.62.49-.93c.33-.63.67-1.26.92-1.77.02-.04.04-.1.07-.16,0,0,0-.02.02-.04.03-.06.06-.13.09-.2,0-.02,0-.03.02-.05.04-.09.08-.18.13-.29,0,0,0-.03.02-.04.04-.08.07-.17.11-.26.02-.04.04-.09.06-.13.21-.49.45-1.04.66-1.51.05-.14.1-.28.15-.42,1.29-3.59,2.23-7.24,3.08-10.95.04-.17.08-.34.12-.51.33-2.69.4-5.59.26-8.59v.02ZM62.57,150.92c.26-.06-.51.72-.46.47-.11-.09.35-.57.46-.47ZM60.99,150.1l-.21-.19.31-.31.21.19-.31.31ZM61.97,152.14l.46-.47.32.28-.46.47-.32-.28ZM62.94,153.59l-.43-.38.31-.31.43.38-.31.31ZM67.17,160.84c-.46.47-.88.09-.43-.38.15-.16.58.22.43.38ZM67.49,165.8c-.11-.09.05-.25.31-.31.21.19-.09.5-.31.31ZM144.07,211.98l.21-.16.22.71-.43-.54h0ZM148.19,211.99c-.31.11.5-.94.49-.64.15.1-.34.73-.49.64ZM148.24,211.06l-.44-.29.49-.63.44.29-.49.63ZM173.47,106.86c.68-.52,1.13.05.45.57-.23.17-.68-.4-.45-.57ZM170.75,93.42c.11.14-.11.32-.45.35-.23-.29.22-.63.45-.35ZM170.52,103.6c.91,1.15,1.93,3.35,1.37,5.4l-.23-.29c-1.02-1.29-1.71-3.53-2.16-5.48.56-.2.79.08,1.02.37ZM163.63,106.78l.35.38c.24.48.74,1.24.74,1.24l-.22.19c-.35-.38-1.24-1.15-.87-1.81h0ZM160.44,110.49s.03.02.04.04c.02.05,0,.12-.02.19.03-.07.04-.14.02-.19,0-.02-.02-.04-.04-.04-.19-.29-.45.3-.18.39.02,0,.05,0,.07,0,.03-.02.06-.04.08-.08-.02.03-.05.06-.08.08-.02,0-.05.02-.07,0-.28-.09-.02-.68.18-.39ZM158.49,109.84l.42.14.42.14c-.07.15-.14.32-.22.48-.05.1-.11.2-.16.28-.06.09-.11.15-.16.16,0,0-.03,0-.04,0l-.14-.63-.12-.57h0ZM155.73,109.59h0l.21.07.21.07c-.07.08-.15.15-.23.2-.02,0-.03.02-.05.04-.22.15-.4.2-.4.2h0l.13-.29.13-.29h0ZM153.71,109.81l.1-.23.07-.16h0l.09.43.11.53h0l-.33-.11-.08-.03.02-.21.02-.23h0ZM149.02,128.99l.45.57-.45.35-.45-.57.45-.35ZM148.16,121.53l.31.2-.34.45-.31-.2.34-.45ZM146.48,120.08c.15.1-.36.77-.51.67-.33.12.53-.99.51-.67ZM145.01,117.44l.62.41-.34.45-.62-.41.34-.45ZM143.52,118.12c.11.14-.11.32-.45.35-.23-.29.22-.63.45-.35ZM142.86,102.35c.03-.1.12-.26.2-.31-.08.04-.17.2-.2.31v.07s.03.04.08,0c.07.02.13,0,.16-.09-.03.07-.09.11-.16.09-.05.03-.08.03-.08,0v-.07ZM142.86,124.61c.68-.52,1.13.05.45.57-.23.17-.68-.4-.45-.57ZM141.63,111.34c-.45.35-.79-.08-.34-.43.45-.35.79.08.34.43ZM142.06,121.31l-.45-.57.23-.17.23.75h0ZM141.46,78.44l-.28-.1-.43-.48c-.26-.29-.89-.77-.93-1.24l1.65,1.82h-.01ZM139.79,107.06c.34.43.34.89-.11,1.24l-.22.17c-.23-.29-.12-1.06.34-1.41h0ZM137.01,127.4l.46.31-.51.67-.46-.31.51-.67ZM136.67,103c0-.36.86-.36.57,0,0,.18-.57.18-.57,0ZM137.4,101.76c.11.14-.34.49-.45.35s.56-.66.45-.35ZM137.25,101.55c-.57,0-1.43,0-1.43-.18l1.43-.91v1.09ZM136.39,97.19v.55c-.57-.18-.86-.55-.86-.55h.86ZM135.24,106.09c.57,0,.57.55,0,.55s-.57-.55,0-.55ZM135.24,108.09c.57,0,.57.73,0,.73s-.57-.73,0-.73ZM134.67,109.91c.29,0,.29.36,0,.36s-.29-.54,0-.36ZM133.84,91.04c.55-.14.78.55.23.7-.55.14-.78-.55-.23-.7ZM134.2,105.53c.17.52.02.94-.53,1.09l-.27.07c-.12-.35.26-1.01.81-1.16h0ZM133.87,92.92c.27-.07.39.28.12.35-.28.07-.45-.45-.12-.35ZM133.77,99.77c.06.17-.49.32-.55.14-.06-.17.76-.39.55-.14ZM133.11,109.41c.06.17-.22.25-.55.14-.12-.35.43-.49.55-.14ZM132.38,110.81c-.57,0-.57-.54,0-.54s.57.54,0,.54ZM131.79,93.85c.55-.14.72.38.17.52s-.72-.38-.17-.52ZM131.3,100.42c-.22.25-.49.32-.55.14-.33-.1.49-.32.55-.14ZM119.57,101.32c-.36-1.53-.41-2.42-.37-3.91-.77-.73-1.12-1.61-1.18-2.51l.43-.02c-.02,1.93,2.01,1.83,2.06,2.6v.13l-.27.14.08,1.15-.55.42.62.61.09,1.3c3.88-.31,7.35.81,8.86,4.37.55,1.44.99,2.47,1.3,3.35.47-.08.62.35.17.51.53,1.64.55,2.85-.04,5.65.31.12.31.46-.14.65-.02.09-.04.18-.06.27-.23.06-4.8,8.13-4.88,6.36,1.94-3.15,2.29-6.84,1.66-10.05-.02.28-.07.57-.14.85l-.23-.29c-1.02-1.29-1.71-3.53-2.16-5.48.21-.07.37-.08.5-.05-.24-.34-.49-.66-.76-.95-.1-.19-5.05-1.56-5.2-1.67-.71.02-1.54.16-2.44.39,0,.29-.05.56-.17.68-.06.06-.11-.25-.15-.6-4,1.08-9.27,3.78-11.95,5.23,1.26-3.77,8.5-8.26,14.94-9.12h-.02ZM127.29,136.5c.1.07.28.04.43-.16.05-.06.07-.11.09-.17.05-.16-.03-.28-.15-.3-.1,0-.23.04-.34.19.11-.15.24-.2.34-.19.13,0,.21.13.15.3-.02.05-.04.11-.09.17-.15.2-.33.23-.43.16-.05-.03-.08-.09-.08-.17,0,.07.03.13.08.17ZM126.48,125.3c.05-.11.4-.35.48-.25h0c-.03.09-.07.16-.11.21-.1.13-.22.18-.28.09-.04,0-.06,0-.07,0,0,0,.04,0,.07,0,.07.09.19.04.28-.09.04-.06.08-.13.11-.21-.08-.09-.43.14-.48.25ZM126.04,133.37c-.07.12-.21.23-.29.18h0c-.21-.14,0-.5.17-.52.06,0,.11.03.14.12.06.04.04.13-.02.22h0ZM125.51,120.8v-.55c.29.18.57.55.57.55h-.57ZM124.96,132.44c-.08.1-.16.21-.25.32-.11.14-.22.27-.32.37-.06.06-.12.12-.17.16.05-.04.11-.09.17-.16.1-.11.21-.24.32-.37.09-.11.17-.22.25-.32l-.82-.54-.07,1.44.07-1.44h0l.82.54h0ZM124.14,155.46h.12s-.08-.02-.12,0c-.19-.07.41.63.73.92-.32-.28-.92-.98-.73-.92ZM124.86,155.98c-.09-.12-.19-.24-.3-.33.11.09.21.21.3.33.07.09.12.19.16.28.03.08.05.15.05.21,0,0,0,.02-.02.02s-.02,0-.04,0c.02,0,.03,0,.04,0,0,0,.02,0,.02-.02,0-.06,0-.13-.05-.21-.04-.09-.09-.18-.16-.28ZM123.76,155.03l-.39.33.39-.33c-.69-.39-2.28-2.42-3.64-3.47-.65-.5-1.25-.77-1.67-.54-.04.02-.08.05-.12.08.54.59,1.4.6,1.86,1.11l-.36.3-.03.03c.12.13.23.22.34.29.17.11.33.17.49.24.11.05.21.11.32.19.05.04.09.08.14.13l.06-.05.04-.03h0s0,.02.02.03c.17.2.22.34.24.45.02.12,0,.2.09.28l.08.08c.14.06.33.17.52.3-.19-.12-.38-.23-.52-.3l-.08-.08c-.08-.08-.07-.17-.09-.28-.02-.11-.07-.25-.24-.45,0,0,0-.02-.02-.03l-.04.03-.06.05h0s-.09-.09-.14-.13c-.1-.08-.21-.14-.32-.19-.16-.08-.32-.14-.49-.24-.11-.07-.23-.16-.34-.29h0l.03-.03.36-.3c-.46-.51-1.33-.52-1.86-1.11.04-.03.08-.06.12-.08.43-.23,1.02.04,1.67.54,1.36,1.04,2.94,3.07,3.64,3.47h0ZM116.07,147.48s.07,0,.14.02c.04,0,.08.03.11.06.04.04.09.11.13.18-.05-.07-.1-.13-.13-.18-.03-.03-.07-.05-.11-.06-.07-.02-.14-.02-.14-.02.04.42.17.76.4,1.01l.29-.25s-.11-.2-.23-.39c.12.19.23.39.23.39l-.29.25c-.23-.25-.36-.59-.4-1.01h0ZM116.57,107.74c0-.13.22-1.04.2-1.3.14,0,.28-.14.28-.14l.14,2.05c-.29.02-.61-.48-.62-.61ZM118.23,139.79s.08.07.16.12c.04.03.08.06.12.09.08.06.16.12.22.16.02.02.05.04.06.05h0c.08.09.22.25.12.33l2.38,2.63c.09.03.19.07.28.11.18.08.37.19.54.3-.18-.12-.36-.22-.54-.3-.09-.04-.19-.08-.28-.11l-2.38-2.63c.09-.08-.05-.24-.12-.33h0s-.03-.03-.06-.05c-.06-.04-.14-.1-.22-.16-.04-.03-.08-.06-.12-.09-.07-.05-.13-.1-.16-.12l-.3-.33h0c-.07-.08-.35-.55-.48-.72-.02-.02-.03-.04-.04-.05l-.08-.08-.08-.08s-.04-.05-.11-.04c-.02,0-.04,0-.07.03-.04.31-.06.53-.06.71,0-.17.02-.39.06-.71.02-.02.05-.03.07-.03.06,0,.11.04.11.04l.08.08.08.08s.02.03.04.05c.12.17.41.63.48.71h0l.3.34ZM118.01,111.91c.15.12.24,1.4.11,1.67-.13.26-.28-2.04-.11-1.67ZM119.29,130.18l-.06,1.15h0l-.41-.27.17-.48.3-.39h0ZM121.64,131.14c-.11.08-.22.13-.32.18-.3.13-.54.14-.54.14h0l.29-.38.16-.21h0l.27.18.14.09h0ZM123.44,144.77c-.05-.05-.11-.1-.15-.14-.07-.07-.14-.15-.21-.22l-.22-.22c.08.07.15.14.22.22.07.07.14.15.21.22.04.04.09.09.15.14.16.16.31.37.03.61.29-.25.13-.45-.03-.61ZM123.28,145.38c-.21-.04-.51-.22-.86-.47-.93-.67-2.19-1.9-3.07-2.8-.44-.45-.78-.81-.93-.98l-.23-.25s0-.06-.02-.14c0-.05-.02-.11-.03-.17-.02-.09-.04-.16-.07-.2l-.42-.09-.15-.17-.15-.17c-.19-.21-.28-.36-.31-.56.03.2.12.35.31.56l.15.17.15.17.42.09s.05.11.07.2c0,.06.02.12.03.17,0,.08.02.14.02.14l.23.25c.15.17.5.53.93.98.88.9,2.14,2.13,3.07,2.8.35.25.65.42.86.47ZM116.93,149l.07.07,1.39,1.54h0l-.25-.09-.38-.42c-.06-.06-.13-.14-.22-.22l-.13-.13h0c-.22-.22-.44-.48-.47-.74h0ZM117.97,167.52l.44.29c-.47.33-.93.34-.93.34l.49-.63h0ZM115.88,166.78l-.06,1.23-.44-.29.18-.52.32-.42ZM114.52,172.05h0c-.16,0-.35.08-.35.24,0,.04.03.07.08.09.05.02.11.03.17.03h0c.09,0,.19-.02.23-.07-.04.05-.14.07-.23.07h0c-.06,0-.12,0-.17-.03s-.08-.05-.08-.09c0-.16.19-.24.35-.24h0c.11,0,.21.05.2.13,0-.09-.08-.13-.2-.13ZM112.39,165.88v-.48l.5-.16-.5.16v.48l1.01-.64h0l-1.01.64h0ZM113.91,167.16h0v.48h0c-.06-.02-.12-.04-.18-.07.06.02.11.05.18.07v-.48ZM113.45,167.42c-.08-.05-.14-.11-.19-.15.05.04.11.1.19.15ZM114.67,170.05l-1.26.8c0,.16.76.16,1.26.16-.51,0-1.26,0-1.26-.16l1.26-.8ZM114.68,131.75l.03.51c-.11.52-.2,1.43-.2,1.43l-.29.02c-.03-.51-.26-1.66.45-1.95h0ZM114.68,171.44s.09-.08.12-.13c.02-.04.03-.09,0-.12,0-.03,0-.06,0-.07-.05-.1-.49.27-.41.38,0,.02.03.02.05.03s.04,0,.07,0h-.07s-.04,0-.05-.03c-.09-.11.36-.48.41-.38v.07s.02.07,0,.12c-.02.04-.07.09-.12.13ZM111.51,169.34c-.16.02-.43.13-.4.22,0,.02.02.03.04.04-.02,0-.03-.03-.04-.04-.03-.1.24-.21.4-.22.1,0,.15,0,.08.1.03.1-.15.18-.3.2h-.08.08c.15,0,.33-.1.3-.2.07-.08,0-.11-.08-.1ZM109.62,164.61c.07.07.2.1.37.06h.02c.06-.02.11-.04.15-.06s.07-.05.1-.08c.02-.03.04-.06.04-.09,0-.06,0-.12-.06-.17.05.05.07.11.06.17,0,.03-.02.06-.04.09-.02.03-.05.06-.1.08-.04.02-.09.05-.15.06h-.02c-.17.04-.3,0-.37-.06-.05-.05-.07-.11-.06-.17,0,.06,0,.12.06.17ZM109.6,164.35c.05-.06.13-.11.25-.14s.22-.03.3,0c-.07-.03-.18-.03-.3,0-.12.03-.2.08-.25.14ZM109.74,142.78c-.14-.11-.28-.22-.42-.34.14.11.28.23.42.34.17.14.34.27.49.39-.15-.12-.32-.25-.49-.39ZM108.85,179.35l-.04.68-.21-.61h.04l.2-.06h.01ZM108.48,177.77c-.03.15.14.31.45.23.42-.11.36-.48,0-.48-.05,0-.11,0-.17.02-.12.03-.2.08-.25.14.05-.06.13-.11.25-.14.06-.02.12-.02.17-.02.35,0,.41.37,0,.48-.3.08-.48-.07-.45-.23ZM104.17,136.61l.08.08c.12.13.12.28.09.45.03-.17.03-.32-.09-.45l-.08-.08c.06.25-.14.42-.23.5l-.06-.25s-.06-.07-.1-.14c-.08-.12-.19-.3-.28-.43-.03-.05-.07-.1-.09-.13-.02-.02-.03-.04-.04-.05l-.08-.08.08.08s.02.03.04.05c.02.03.06.08.09.13.09.13.2.31.28.43.05.07.08.12.1.14l.06.25c.1-.08.29-.25.23-.5ZM105.67,139.39c-.05-.05-.2-.07-.33-.1.13.03.28.05.33.1,0,0,.12.24.2.46.03.07.05.15.07.21l.13.34-.13-.34c0-.06-.04-.14-.07-.21-.08-.22-.2-.46-.2-.46ZM105.74,154.67c-.02.31-.18.52-.32.42-.31.12.18-.52.32-.42ZM104.31,138.14c.06.15.16.31.32.49l.28.31.26.28s.02.02.04.03c-.02,0-.03-.02-.04-.03l-.26-.28-.28-.31c-.16-.17-.26-.34-.32-.49-.06-.15-.08-.29-.07-.42,0-.09,0-.17.03-.25,0-.08.03-.15.05-.22-.02.07-.03.15-.05.22,0,.08-.03.16-.03.25,0,.13.02.27.07.42ZM104.58,176.5c.41.52.85,1.28,1.11,2.15h0c.03.12.06.23.09.34h0c.06.23.1.46.12.7.58.61,1.06,1.26,1.24,1.46l-.21.18s-.46-.35-1.02-.8c0,.12-.02.24-.04.36h0c-.02.13-.05.25-.08.37h0l-.1-.13-.1-.13h0c-.09-.12-.18-.25-.27-.39-.03-.05-.07-.11-.1-.17-.04-.07-.08-.14-.12-.21-.63-1.14-1.09-2.68-1.42-4.07.5-.18.7.07.9.33h0ZM106.93,179.89l-1.15-1.27.31-.27s.76.64,1.01.91l.99,1.09-.1.09c-.1.09-.78-.46-1.05-.55h0ZM106.89,139.99s-.02.06-.03.09c0,.06,0,.12.02.18s.05.12.09.17c-.04-.06-.07-.11-.09-.17-.02-.06-.03-.12-.02-.18,0-.03,0-.06.03-.09h0l.46.51-.19.17h0s-.04-.04-.06-.07c.02.02.04.05.06.07l.19-.17-.46-.51ZM107.33,148.02h0s.06,0,.07,0c.04.02.05.05.06.08,0-.02-.02-.06-.06-.08-.02,0-.04-.02-.07,0-.3.3-.48.48-.58.66.1-.18.28-.36.58-.66ZM107.44,149.71c0,.11.17.56.17.67v.21c0-.07,0-.16,0-.21,0-.11-.17-.56-.17-.67l-.03-.45v-.18c0-.12.03-.29.04-.43,0-.1.02-.18.02-.24v-.07l-.02-.23.02.23v.07c0,.06,0,.15-.02.24,0,.14-.03.31-.04.43v.18l.03.45ZM106.95,150.08h0s0,.05-.02.09c0,.03-.03.07-.04.1-.03.05-.06.11-.08.15.03-.05.06-.1.08-.15.02-.04.03-.07.04-.1s.02-.07.02-.09h0l-.28-.33-.03-.45v-.36c-.02.1-.02.21,0,.36l.03.45.28.33h0ZM106.75,150.89c0,.17.04.49.08.9-.04-.41-.07-.73-.08-.9v-.22l-.02-.12s0-.02.04-.06c-.02.03-.04.06-.04.06v.12l.02.22ZM106.78,141s-.03,0-.04,0c-.05,0-.12-.06-.18-.12.06.06.13.12.18.12.02,0,.03,0,.04,0,.07-.06.07-.15.04-.22.04.08.03.16-.04.22ZM106.63,140.62c.05,0,.1.04.14.09-.04-.04-.09-.07-.14-.09ZM106.46,140.76s-.02-.08,0-.1c-.02.02-.02.06,0,.1ZM106.86,174.19c.29.09.64.33.64.33l-.48.13-.15-.46h-.01ZM108.07,157.29c-.59-.22-1-3.21-1.2-5.07.2,1.86.61,4.84,1.2,5.07.09,0,.16-.03.21-.06.24-.13.14-.46.13-.64-.03-.4-.09-.82-.19-1.23-.09-.33-.21-.63-.36-.91-.04-.07-.07-.15-.11-.21l-.23-3.51s.05-.02.07-.04c-.02.02-.04.04-.07.04l.23,3.51c.04.07.07.14.11.21.15.28.28.59.36.91.11.41.17.83.19,1.23,0,.19.11.52-.13.64-.05.03-.12.05-.21.06ZM108.28,141.52l-.38-.42c.07-.03.15-.04.23-.04.31-.02.64.13.97.35-.33-.23-.67-.37-.97-.35-.08,0-.15.02-.23.04l.38.42c.08.09.22.22.4.38.13.11.27.23.43.36-.15-.13-.3-.25-.43-.36-.17-.15-.32-.28-.4-.38ZM110.69,142.11l.26.28c.13.04.35.19.55.32.08.05.15.09.22.13.1.06.19.09.22.06l.09-.08h0l-.88-.97-.04-.05h0c-.06-.06-.14-.15-.24-.24.1.09.18.17.24.24h0l.04.05.88.97h0l-.09.08s-.11,0-.22-.06c-.07-.04-.14-.08-.22-.13-.2-.13-.42-.28-.55-.32l-.26-.28-.82-.9.29-.25s.08.06.18.15c.1.09.23.2.36.32-.13-.12-.26-.23-.36-.32-.1-.09-.18-.15-.18-.15l-.29.25.82.9ZM111.76,144.02s-.1,0-.14.05c-.05.04-.07.09-.07.13,0-.04.02-.09.07-.13.05-.04.1-.06.14-.05.09,0,.16.09.16.17,0,.03,0,.05-.03.08,0,.02-.02.04-.04.05-.12.1-.26.04-.29-.06.04.1.17.16.29.06.02-.02.03-.04.04-.05.02-.03.03-.05.03-.08,0-.09-.07-.17-.16-.17ZM109.54,119.3h0s.03.02.05.02c.09,0,.17-.08.22-.22-.05.14-.13.23-.22.22-.02,0-.03,0-.05-.02-.04,0-.06.02-.08,0-.07-.03.09-.26.23-.36-.14.1-.31.34-.23.36,0,0,.04,0,.08,0ZM109.82,142.02c-.16-.15-.32-.3-.48-.43.16.13.33.28.48.43ZM108.93,170.14c-.29-.09.43-.28.48-.13-.19.22-.43.28-.48.13ZM110.96,143.73l.19-.16-.19.16s-.22-.17-.53-.41c.31.24.53.41.53.41ZM111.6,163.38h.09c.05,0,.1,0,.13,0,.03,0,.05.03.07.05.05.06.05.14,0,.2-.02.02-.05.05-.1.06-.12.03-.22-.07-.25-.16-.02-.07,0-.14.06-.15ZM111.51,175.48c.12-.03.22-.08.3-.14.16-.12.23-.29.23-.49,0-.1-.02-.21-.06-.33-.12.03-.23.09-.33.17.1-.08.21-.14.33-.17h0c.04.12.06.22.06.33,0,.2-.07.37-.23.49-.08.06-.18.11-.3.14l-.13.03-.11.03h0s-.02-.08-.02-.13c0,.05,0,.09.02.13l.11-.03.13-.03ZM111.86,162.34c-.06.02-.12.02-.17.02-.2-.02-.33-.19-.31-.35,0,.16.11.33.31.35.05,0,.11,0,.17-.02.42-.11.32-.6-.04-.63-.05,0-.11,0-.17.02s-.11.04-.15.07c.04-.03.09-.05.15-.07s.12-.02.17-.02c.36.03.46.52.04.63ZM102.21,127.05s.1-.05.16-.04c.05,0,.1.04.14.09.08.08.11.21,0,.29-.05.04-.1.05-.16.04-.03,0-.05-.02-.08-.03.02,0,.05.03.08.03.05,0,.11,0,.16-.04.1-.08.07-.21,0-.29-.04-.04-.09-.07-.14-.09s-.11,0-.16.04c-.02.02-.04.04-.05.07,0-.02.03-.05.05-.07ZM102.22,134.07h0c1.09,1.21,2.49,2.32,3.7,3.45.3.28.58.56.85.84.09.1.19.2.28.3.23.25.31.34.27.67h0l-.11.03-.16.05-2.15-1.62-.33-.17.95,1.05,1.05,1.16-.25.67h-.03s-.1,0-.15-.04c.05.02.12.03.15.04h.03l.25-.67-1.05-1.16-.95-1.05h0l.33.17,2.15,1.62.16-.05.11-.03c.04-.33-.04-.42-.27-.67-.09-.1-.19-.2-.28-.3-.27-.28-.55-.56-.85-.84-1.21-1.13-2.61-2.24-3.7-3.45-.29.25.26,1.43.5,1.68l.08.08c.06.04.11.06.16.07-.05,0-.1-.03-.16-.07-.03-.02-.06-.05-.08-.08-.23-.25-.78-1.43-.5-1.68ZM99.98,100.24l.06.31c.25,1.41-.15,3.41-.61,5.08-.52-.09-.58-.4-.64-.72-.23-1.26-.1-3.37,1.19-4.68h0ZM69.12,135.85c.19-.16.5.17.31.34-.19.16-.5-.17-.31-.34ZM68.28,168.85c-.32-.28-.38-.63-.07-.94l.15-.16c.21.19.23.78-.08,1.1ZM68.49,163.76l-.27-.53.43.38-.15.16h-.01ZM69.35,165.11c-.31.31-.63.03-.32-.28s.62-.03.32.28ZM72.96,169.41c-.03-.14.41-.2.44-.06.05.28-.61.37-.44.06ZM73.31,171.35l-.15-.83c.44-.06,1.09-.15,1.12-.02l-.97.85ZM74.41,173.75l-.07-.42c.46.08.73.32.73.32l-.66.09h0ZM75.59,175.3l-.44.06.78-.68.07.42s-.41.2-.41.2ZM84,177.23l-2.67-2.79c-.02.06-.03.12-.05.17-.46-.08-.51-.35-.56-.63,0-.06-.02-.14-.03-.2l-6.63-6.95c-.39.06-.49-.27-.19-.38l-8.06-11.04,3.67-7.95,9.51-10.56,2.9-8.38,9.74-11.34,7.21-2.98,1.49,3.67,2.23,34.95-8.16,26.78-10.41-2.36h0ZM94.61,199.38h-.25c-.03-.44-.23-1.45.4-1.71l.03.45c-.1.46-.17,1.26-.17,1.26h0ZM96.47,173.4c.26.1.33,1.12.09,1.36-.12.12-.23-1.58-.09-1.36ZM96.42,176.47c0-.11.2-.92.18-1.15.13,0,.25-.13.25-.13l.12,1.81c-.25,0-.54-.43-.55-.54h0ZM97.54,163.42c.21-.18.54.19.33.36-.21.18-.54-.19-.33-.36ZM97.78,181.63c-.11.23-.25-1.8-.1-1.47.14.11.21,1.24.1,1.47ZM99.77,173.32c-.38.02-.51-1.9-.67-2.35-.34-1.41-.4-2.21-.37-3.5v-.12c-.34-.32-.59-.68-.76-1.05.17.37.42.73.76,1.05v.26c.26-.22.51-.44.77-.66h0c-.15-.09-.32-.18-.5-.28-.04-.02-.08-.05-.12-.08-.03-.02-.06-.04-.09-.06-.06-.05-.13-.1-.19-.15l-.06-.06c-.05-.04-.09-.09-.13-.14-.02-.02-.03-.04-.05-.06-.05-.07-.1-.15-.14-.24,0-.02,0-.04-.02-.06-.03-.08-.06-.16-.08-.25,0-.03,0-.06-.02-.09-.02-.11-.03-.23-.03-.37h0l-.38.02c0,.1.02.2.03.3,0-.1-.03-.2-.03-.3h0l.38-.02h0c0,.14,0,.26.03.37,0,.03,0,.06.02.09.02.09.05.17.08.25,0,.02,0,.04.02.06.04.09.09.17.14.24.02.02.03.04.05.06.04.05.09.1.13.14l.06.06c.06.05.12.1.19.15.03.02.06.04.09.06.04.03.08.05.12.08.18.1.35.19.5.28h0c.22.13.38.26.39.46v.11l-.24.13.07,1.02-.49.37.55.54.08,1.25c.02.34.38,1.91-.09,2.5h0ZM105.92,203.81c-.52.14-.69-.36-.17-.5s.68.36.17.5ZM107.63,208.93c.06.16-.47.3-.52.14-.06-.17.72-.37.52-.14ZM109.29,206.49h.81v.52c-.54-.17-.81-.52-.81-.52ZM108.48,205.11v-.52l.54-.17h.54l-1.09.69h.01ZM109.57,210.44l1.36-.86v1.03c-.54,0-1.36,0-1.36-.17ZM110.92,211.99c0,.17-.54.17-.54,0,0-.34.81-.34.54,0ZM110.64,211.14c-.11-.14.53-.63.43-.33.11.14-.32.46-.43.33ZM108.05,200.7c.18.11.22.36.06.51.22,1.8.44,3.16.26,3.92-1.87-.54-3.7-7.76-4.32-9.26v-.04c-.05.03-.12.04-.21.05-.85-.32-1.35-5.91-1.42-6.88l-.02-.36s.25-.38.24-.5l-.3-.35-.03-.49c-.04-.61.09-.74.73-1.38.14,0,.14.11.14.11l.02.24c0,.12-.08.86-.07.98l.03.49c0,.12.18.6.19.72,0,.12.02.36-.11.37l.25,3.77c.31.47.49,1.06.61,1.64.08-2.82.14-4.51.62-6.26h-.41v-.48h0s.08.05.11.08c0,0,.02.02.03.03.03.02.05.05.08.07l.03.03c.07.07.13.13.17.18h0c.46-1.62,1.3-3.3,2.86-5.97-.05-.07-.05-.17.04-.25.06-.05.12-.06.17-.05.57-.76,1.32-1.7,2.2-2.78h0s.02-.03.04-.05h0c.19-.23.38-.47.58-.72-.02,0-.04,0-.05,0-.02,0-.03,0-.05,0h0s0-.07,0-.1v-.03s0-.04.02-.06c0,0,0,0,0-.02.02-.02.03-.04.06-.06h0s.04-.02.06-.03h.11s.05,0,.08.02h0c.59-.72,1.21-1.5,1.86-2.32h0s-.05-.02-.08-.03c0,0-.03,0-.04-.02-.02,0-.03-.03-.05-.04l-.03-.03s-.02-.03-.02-.04,0-.03,0-.04v-.04s0-.03,0-.04c0,0,0-.02.02-.04,0-.02.02-.03.04-.04,0,0,.02-.02.03-.03.02,0,.05-.02.08-.03,0,0,.02,0,.04-.02.05,0,.1-.02.16-.02h0c.08,0,.14,0,.19.03h0c3.71-4.68,8.23-10.74,11.3-17.07-.03-.03-.06-.06-.09-.1l.2-.18.03-.03c3.09-6.48,4.63-13.22,2.2-19,4.37,4,4.12,14.77,2.73,21.44.13.1.31.28.48.47.02.02.03.04.05.06.02.03.05.06.07.08.03.03.05.06.07.09.02.02.03.04.05.06.02.04.05.07.06.1,0,0,.02.03.03.04.02.04.04.08.05.11h0s0,.03,0,.02h0s-.03,0-.05-.03c0,0,0,0-.02,0-.03-.02-.06-.05-.09-.08l-.02-.02s-.07-.06-.1-.1l-.03-.03s-.08-.08-.11-.12l-.02-.02c-.05-.05-.1-.1-.14-.16l-.02-.02c-.04-.05-.08-.09-.12-.14,0,0-.02-.02-.02-.03-.04-.05-.08-.1-.12-.14-.04.17-.08.34-.11.51l.24.26c.07.08.24.23.45.43l.26.26c-.09-.09-.17-.18-.26-.26-.2-.2-.38-.35-.45-.43l-.24-.26c-.07.3-.14.6-.21.88.24.18.71.64,1.13,1h0s.08.08.13.11c0,0,.02,0,.03.02.04.03.07.06.11.08,0,0,.02.02.03.03.03.02.06.04.09.06,0,0,.03.02.04.03.03.02.05.03.08.04,0,0,.03,0,.04.02.02,0,.05.02.07.03,0,0,.02,0,.03,0h.09s.05,0,.06-.03h0c0-.17-.07-.36-.17-.55-.04-.07-.08-.14-.13-.21.05.07.09.14.13.21.1.19.17.37.17.55h0s-.04.02-.06.03h-.09s-.02,0-.03,0c-.02,0-.04,0-.07-.03,0,0-.03,0-.04-.02-.03,0-.05-.03-.08-.04,0,0-.03-.02-.04-.03-.03-.02-.06-.04-.09-.06,0,0-.02-.02-.03-.03-.04-.03-.07-.05-.11-.08,0,0-.02,0-.03-.02-.04-.03-.08-.07-.13-.1h0c-.42-.37-.89-.83-1.13-1.01-.49,1.85-1.06,3.22-1.61,3.76-1.77,2.1-7.61,8.5-11.64,12.9l2.18,2.41c.8.28,1.57.92,2.14,1.56.16.18.6.46.18.81-.77.23-3.88-2.93-5.06-4.18-1.91,2.08-3.3,3.6-3.47,3.78-4.59,7.06-4.28,13.66-3.79,17.99l.03.07ZM128.86,140.47c-.03-.06-.03-.13,0-.22.02-.04.04-.09.08-.14.04-.05.08-.09.12-.12-.04.03-.08.07-.12.12-.04.05-.06.1-.08.14-.03.09-.03.17,0,.22ZM129.38,139.95c-.05-.03-.12-.04-.2-.02.08-.02.15,0,.2.02.07.05.1.15.06.27,0,.03-.03.07-.05.1,0,.02-.02.04-.03.06-.04.05-.08.09-.12.12.04-.03.08-.07.12-.12.02-.02.02-.04.03-.06.02-.04.04-.07.05-.1.04-.12,0-.22-.06-.27ZM129.36,137.42c-.08.1-.17.15-.26.16-.27.05-.52-.23-.29-.53.03-.05.07-.08.11-.11.03-.02.06-.03.09-.04.02,0,.03-.02.05-.02.06,0,.12,0,.18.02s.12.06.15.11c0,.02.02.04.03.07,0,.02.02.03.02.05,0,.08,0,.18-.08.28h0ZM129.89,138.57s.08.03.12.03c.03,0,.05,0,.08-.02s.05-.03.07-.05c.06-.07.05-.15.02-.2.03.05.04.12-.02.2-.02.02-.04.04-.07.05s-.05.02-.08.02c-.04,0-.08,0-.12-.03s-.07-.04-.09-.07c-.04-.05-.03-.12.08-.16.04-.05.08-.07.13-.08-.04,0-.09.03-.13.08-.11.04-.12.1-.08.16.02.03.05.05.09.07ZM129.95,176l-.43,1.2-.32-.41.32-.46.43-.33h0ZM127.55,175.75c-.16.21-.6-.08-.29-.19.16-.21.46-.02.29.19ZM126.25,177.44c.32-.42.76-.13.44.29-.32.42-.77.13-.44-.29ZM126.12,174.17c.32-.42.91-.04.59.39-.32.42-.91.04-.59-.39ZM124.94,173.39c-.32.42-.76.13-.44-.29.32-.42.76-.13.44.29ZM122.07,185.39l-.3.39-.11-.07-.43-.29.2-.26.1-.13h0l.37.24.18.12h0ZM118.51,179.16h-.02c-.07,0-.16.04-.25.11-.1.08-.16.16-.18.23.02-.07.08-.15.18-.23.09-.07.17-.1.25-.11h.02c.23,0,.33.26.03.49,0,0-.03.02-.04.02-.07.05-.14.07-.2.08h-.03c-.08,0-.14-.03-.18-.07.04.05.1.08.18.07h.03c.06,0,.13-.03.2-.08,0,0,.03,0,.04-.02.3-.23.21-.5-.03-.49ZM120.21,185.63c-.07-.09-.17-.11-.26-.08-.12.04-.22.16-.19.29,0,.03.02.07.05.1.07,0,.14-.02.2-.04-.06.02-.13.03-.2.04-.03-.03-.04-.07-.05-.1-.03-.13.07-.25.19-.29.09-.02.18,0,.26.08.04.05.03.1,0,.15-.02.03-.06.06-.11.09.05-.02.09-.05.11-.09.04-.05.04-.1,0-.15ZM118.92,188.45l-.26-.32-.14-.18.1-.08.1-.08h0l.2.66h0ZM112.86,186.44c-.25-.27-.39-.63-.43-1.08,0,0,.19,0,.27.09.16.18.47.72.47.72l-.31.27h0ZM113.35,186.99l1.56,1.73-.27-.09-.41-.45c-.25-.27-.84-.73-.89-1.18h.01ZM114.46,193.83l.41.27-.23.3-.23.3h0l-.41-.27.45-.59h0ZM123.08,203.2c-.2.15-.37.34-.22.32-.15,0,.02-.17.22-.32ZM123.3,203.05s.08-.04.11-.05c-.03,0-.07.02-.11.05ZM124.26,205.29l-.2-.25h0l.23-.17.17-.13h0l.2.25-.4.31h0ZM123.62,197.73c-1-.1-1.77-.55-2.34-1.17-.38.5-.75,1.02-1.13,1.55-.07.05-4.51,13.82-4.55,13.9-1.61-1.88-1.33-14.39-1.31-16.1.22-1.06,1.61-2.81,3.13-4.48-.31-.16-.64-.24-.99-.62l.41-.35c-.49-.55-1.42-.56-2-1.19.7-.6,1.94.39,3.13,1.57,1.84-1.95,3.71-3.66,3.89-3.83,3.77-2.34,6.89-5.49,9.35-9.17-.12,0-.2-.03-.2-.03l.45-.34c4.91-7.54,7.14-17.23,6.71-26.84,0,0-.02,0-.03,0h0s-.06-.06-.08-.09c0,0,0-.02,0-.03,0-.02,0-.05,0-.07v-.03s0-.05.03-.07c0,0,0,0,0-.02.02-.03.05-.06.08-.08h0c-.11-2.13-.36-4.24-.72-6.33-.02,0-.04,0-.05-.03-.02-.03-.03-.06-.03-.09v-.03s0-.05,0-.07c0-.02.02-.04.03-.06h0c-1.35-7.42-4.34-14.45-8.96-19.97,21.08,12.1,20.23,33.76,12.5,49.36-.81,1.21-1.62,2.35-2.42,3.43.19.33.39.63.39.63l-.19.16h0c-.05-.05-.11-.12-.18-.19-.08-.08-.17-.18-.26-.28h0c-6.07,8.12-11.71,12.79-16.89,19.65l.17-.15c1.13,1.45,2.58.21,3.07.76l.08.09-.12.27.74.82-.17.63.83.1.91,1c.25.27,1.61,1.37,1.6,2.18-.31.27-1.71-1.28-2.14-1.56-1.28-1.01-1.85-1.64-2.74-2.82v-.02ZM132.39,138.77l-.4,1.12-.3-.38.18-.26.12-.18.4-.31h0ZM131.92,145.15c-.07.09-.11.18-.07.2,0,0,.04,0,.08,0h0s.03.02.05.02h.05-.05s-.03,0-.05-.02c-.04,0-.06.02-.08,0-.04-.02,0-.11.07-.2.09-.12.24-.25.31-.2h0s0,.08-.02.12c-.02.09-.05.17-.09.22.04-.05.07-.13.09-.22,0-.04,0-.08.02-.12-.07-.05-.22.08-.31.2ZM133.59,143.17c0-.08-.03-.09-.08-.06-.08.05-.19.19-.23.31.04-.12.15-.27.23-.31.05-.03.08-.02.08.06.05.03.04.11,0,.19-.07.13-.22.26-.3.21-.02,0-.02-.03-.03-.05,0,.02,0,.04.03.05.09.06.24-.08.3-.21.04-.08.05-.15,0-.19ZM134.29,140.36s-.09.03-.13.04c-.08.02-.15.04-.22.05-.11.02-.2.02-.29.02.08,0,.18,0,.29-.02.07,0,.15-.03.22-.05.04,0,.08-.02.13-.04l-.19-.24-.11-.14-.3.23-.3.23h.02s.07,0,.13.02c-.06,0-.11,0-.13-.02h-.02l.3-.23.3-.23h0l.11.14.19.24h0ZM133.24,150.06l.15-.2.15-.2s-.06,0-.14,0c-.03,0-.07,0-.1,0,.04,0,.07,0,.1,0,.09,0,.14,0,.14,0h0l-.15.2-.15.2-.41-.27s.07-.03.11-.04c.08-.02.16-.04.24-.05-.08,0-.16.03-.24.05-.04,0-.08.02-.11.04l.41.27ZM136.84,151.54s-.08.09-.12.12c.04-.03.08-.07.12-.12.08-.1.11-.19.11-.26,0-.04,0-.07-.02-.1-.03-.06-.08-.09-.15-.1h0s-.09,0-.13.03c-.07.03-.13.08-.2.16-.11.15-.13.28-.08.36.03.06.08.09.15.1-.07,0-.12-.04-.15-.1-.04-.08-.03-.21.08-.36.06-.08.13-.13.2-.16.05-.02.09-.03.13-.03h0c.07,0,.12.04.15.1,0,.03.02.06.02.1,0,.07-.03.17-.11.26ZM136.92,147.82c.03.11.07.21.13.28.03.04.06.07.09.09l.15-.2c.08-.1.12-.2.15-.29-.02.1-.07.19-.15.29l-.15.2s-.07-.05-.09-.09c-.06-.07-.1-.17-.13-.28ZM137.4,147.29c.04.08.07.17.07.27,0-.09-.02-.18-.07-.27ZM137.07,146.95s-.03.04-.04.06c-.08.14-.13.29-.14.45,0-.16.06-.32.14-.45,0-.02.02-.04.04-.06h0c.1.07.19.14.25.22-.06-.08-.15-.15-.25-.22ZM136.67,142.8c-.17.13-.34.25-.49.33-.09.05-.17.09-.23.09h-.02s-.03,0-.04,0h0l.49-1.4h0l.6.76c-.1.08-.21.16-.33.25l.02-.02ZM137.63,152.65l.4.56h0l-.55-.36.55.36-.4-.56ZM146.52,138.39c-.34.03.79-.84.68-.52.11.14-.56.66-.68.52ZM149.09,169.72l-.18.23-.12.16h0l-2.53-4.66-1-1.83.3-.39,3.53,6.49h0ZM147.88,140.11l.45-.35.23.29-.45.35-.23-.29ZM149.33,172.2s0,.03-.02.05v.03s.03.02.06,0c.02,0,.04,0,.06,0,.13-.04.33-.29.4-.45.03-.07.03-.12,0-.14,0-.05-.02-.06-.05-.05,0,0-.02,0-.04.02-.04.03-.08.06-.12.11-.06.06-.12.14-.17.21-.03.05-.07.1-.09.14.02-.04.05-.09.09-.14.05-.07.11-.15.17-.21.05-.05.09-.09.12-.11,0,0,.03-.02.04-.02.03,0,.05,0,.05.05.03.02.03.08,0,.14-.06.17-.27.41-.4.45h-.06s-.06,0-.06,0v-.03s0-.03.02-.05ZM149.43,171.43l-.1-.07-.31-.2h0l.23-.3.23-.3.25.16.16.11-.45.59h0ZM146.96,176.23s.06,0,.08-.03c.22-.17.31-.35.29-.48,0-.13-.13-.22-.3-.2.17,0,.28.07.3.2,0,.13-.07.31-.29.48-.02.02-.05.03-.08.03-.21,0-.49-.4-.32-.53-.17.13.11.54.32.53ZM145.94,172.78l-.11-.14-.29-.36.2-.15.2.66h0ZM145.25,177.58l-.2-.25c-.34-.43-.63-.97-.89-1.58.26.6.56,1.15.89,1.58l.2.25c.09-.34.14-.68.14-1.02,0-.91-.26-1.81-.62-2.55.36.75.63,1.64.62,2.55,0,.34-.05.68-.14,1.02ZM143.14,172.49c.12-.04.23-.06.32-.06.14,0,.24.05.34.13s.17.17.24.26c.2.25.41.56.6.92-.19-.35-.4-.66-.6-.92-.08-.09-.15-.19-.24-.26-.09-.07-.2-.12-.34-.13-.09,0-.2.02-.32.06.1.43.21.88.34,1.32-.13-.45-.24-.89-.34-1.32h0ZM137.92,187.79c.21-.16.43.11.22.27-.21.16-.54-.24-.22-.27ZM137.7,186.65c-.43.33-.86-.21-.43-.54.43-.33.86.21.43.54ZM136.41,185.02c-.43.33-.75-.08-.32-.41s.75.08.32.41ZM136.14,188.74c-.29-.19.03-.62.32-.42.15.1-.02.31-.32.42ZM134.97,184.78c.44.29.57.7.25,1.12l-.16.21c-.29-.19-.41-.91-.08-1.33h0ZM134.72,189.72c-.32.42-.76.13-.44-.29.32-.42.76-.13.44.29ZM135.33,181.48c-.22-.27.43-.76.43-.33.11.14-.32.46-.43.33ZM131.19,187.7l-.32.42-.44-.29c.31-.11.76-.13.76-.13h0ZM127.73,200.03c.06.27-1.42-1.37-1.07-1.18.19,0,1.01.91,1.07,1.18ZM125.46,195.74l-.4.31h0l-.4-.51.25-.2.14-.11.4.51h0ZM123.94,196.65c-.21.18-.74,0-.83-.1-.08-.09-.45-.91-.62-1.09.1-.09.12-.27.12-.27l1.32,1.46h0ZM137.53,201.18l-.32-.41c.32-.03.75.08.75.08l-.43.33ZM137.73,195.79c-.32.03.32-.46.43-.33-.11.3-.32.46-.43.33ZM139.65,194.32c-.11-.14.53-.63.43-.33.11.14-.32.46-.43.33ZM140.64,203.81c-.43.33-.75-.08-.32-.41s.75.08.32.41ZM142.34,199.01c.32.41.32.84-.1,1.17l-.21.16c-.22-.27-.11-1.01.32-1.34h0ZM142.25,203.23c-.22-.27.21-.6.43-.33.11.14-.11.3-.43.33ZM149.93,187.88s-.05,0-.06-.02c-.03,0-.04,0-.05-.02h0v-.03.03h0s.02.02.05.02c0,.02.03.02.06.02.18,0,.63-.37.54-.48v-.04.04c.09.11-.36.48-.54.48ZM149.86,187.75s.06-.07.1-.11c.03-.02.05-.05.08-.07.06-.05.12-.1.18-.14.02,0,.04-.02.05-.03.06-.04.12-.06.15-.07-.04,0-.09.04-.15.07-.02,0-.03.02-.05.03-.06.04-.12.09-.18.14-.03.02-.06.05-.08.07-.04.04-.08.07-.1.11ZM150.77,186.56l-.07.05-.53.41h0l-.05-.07-.25-.31.6-.46h0l.16.2.14.18h0ZM151.33,189.58l-.05.04-.2-.25.4-.31h0l.2.25-.35.27h0ZM150.3,185.15l.07.09-.17.13-.23.17-.06-.08c-7.43,5.88-16.77,11.31-21.78,22.69-.93-2.72,2.78-12.69,8.24-18.26-.18-.06-.22-.3.06-.51.22-.17.42-.14.49-.02.51-.48,1.03-.93,1.57-1.32,8.6-6.04,13.14-15.97,13.35-16.43,3.26-10.14,6.47-23.09-.43-34.14.24-.08-7.41-7.29-5.46-6.8.09.1,12.02,8.37,12.06,8.5,6.74,10.47,6.06,30.58-1.31,39.78-1.76,2.28-3.97,4.28-6.39,6.22v-.02ZM152.8,145.38l.04-.47.19-.42.22,1.03-.45-.15h0ZM161.95,147.95c.19-.42.64-.27.45.15s-.64.27-.45-.15ZM177.91,174.97c-5.19,8.76-10.36,12.86-14.68,19.76-.05.04-2.57,10.32-2.6,10.38-1.42-1.22-2.12-10.25-2.23-11.49.23-1.81,5.11-6.77,5.38-7.03,6.07-4.28,9.46-10.98,10.41-18.17-.55-.43-1.08-.89-1.57-1.34.34-.37.64-.27.94-.17.24.08.5.19.77.32.23-2.45.18-4.94-.14-7.41-.08-.05-.11-.17-.05-.34-1.01-7.25-4.36-14.22-9.82-19.03,17.67,6.99,18.6,22.65,13.6,34.51h0ZM163.6,148.5c.19-.42.79-.22.6.2-.19.42-.79.22-.6-.2ZM164.9,151.34c-.19.42-.64.27-.45-.15s.64-.27.45.15ZM164.9,149.42c.09-.21.39-.11.3.1s-.54.06-.3-.1ZM168.69,154.76c.06.26-.04.47-.19.42-.24.16.04-.47.19-.42ZM169.53,152.88c.15.05-.04.47-.19.42-.15-.05.13-.68.19-.42ZM170.42,158.94c.24-.16.64-.27.64-.27l-.19.42-.45-.15ZM185.97,168.69l-.6-.2.19-.42.6.2-.19.42ZM186.43,169.56l.28-.63.45.15-.28.63-.45-.15ZM187.05,170.49c-.24.16.23-.88.28-.63.15.05-.13.68-.28.63ZM189.14,171.18l-.3-.1.19-.42.3.1-.19.42ZM192,154.18c-5.65-8.82-10.58-17.58-20.97-22.16-.93-.5-11.4-3.83-16-4.08-.53-.07-.49-.85.04-.87,3.63-.15,8.14-.25,9.06.15,1.08.5,4.25.98,6.36,1.29,1.38.4,2.67.82,3.9,1.26,2,.95,4.25,2.02,6.62,3.08,4.84,2.92,8.54,7.08,12.63,13.94-.43,2.48-.98,4.95-1.65,7.39h.01ZM164.69,116.02c.09,0,.19-.08.26-.23.04-.1.05-.18.03-.24.02.06,0,.14-.03.24-.07.15-.17.22-.26.23-.15.02-.27-.13-.16-.37.09-.19.24-.26.34-.22-.1-.03-.25.03-.34.22-.11.24,0,.39.16.37ZM168.29,119.37h.09c.05-.03.09-.11.1-.21,0-.05,0-.11,0-.17-.03,0-.08.02-.12.06.04-.05.08-.07.12-.06h0c0,.06.02.12,0,.17,0,.1-.04.18-.1.21-.03.02-.06.02-.09,0-.05.03-.08.03-.08,0s0-.09.03-.16c-.03.07-.04.12-.03.16,0,.03.03.04.08,0ZM169.3,117.39s-.04.1-.06.14c-.03.04-.07.08-.1.09h-.05s-.04-.06-.04-.11c0-.12.09-.29.15-.32.03,0,.05,0,.06.05.03,0,.05.04.05.09v.07h0ZM170.08,122.87c.23-.15.59-.25.59-.25l-.09.2-.08.19-.42-.14h0ZM173.09,119.8c0-.05.02-.1.05-.15h0c.05.02.1.04.15.06-.04-.02-.09-.04-.15-.06-.02.05-.04.1-.05.15,0,.05,0,.1,0,.16,0,.32.2.63.41.7l.09-.19c.09-.19.08-.36,0-.5-.04-.07-.1-.13-.17-.18.07.05.13.11.17.18.08.14.08.31,0,.5l-.09.19c-.21-.07-.4-.38-.41-.7,0-.05,0-.11,0-.16ZM173.55,123.68c.07.07.19.07.29-.02.04-.04.08-.09.12-.16.02-.03.02-.06.03-.09,0,0,0-.03,0-.04v-.11s0,.07,0,.11c0,0,0,.03,0,.04,0,.03,0,.06-.03.09-.03.07-.07.12-.12.16-.1.09-.23.09-.29.02-.06-.06-.07-.17,0-.32.07-.15.17-.22.26-.23h.08s-.05,0-.08,0c-.09,0-.19.08-.26.23-.07.15-.05.26,0,.32ZM174.86,122.44s.03.02.05.03c.17-.11.26-.25.24-.33,0-.03-.03-.05-.06-.06-.07-.02-.13-.02-.18,0,.05-.02.11-.03.18,0,.03,0,.06.03.06.06.02.08-.07.22-.24.33h0s-.03-.02-.05-.03c0,0-.03,0-.04-.02-.04-.04-.06-.09-.06-.14,0,.05,0,.1.06.14,0,0,.02,0,.04.02ZM175.37,124.64l-.56-.19.09-.19-.09.19.56.19ZM177.86,126.59c-.03.07-.13.09-.24.08.11,0,.21,0,.24-.08.03-.07.05-.14.06-.2h0c.02-.12,0-.21-.05-.27-.07-.09-.2-.1-.33-.02-.09.06-.17.15-.23.3,0,.02,0,.05,0,.07v-.07c.07-.15.15-.24.23-.3.13-.08.26-.07.33.02.05.06.07.15.05.27h0c0,.06-.03.13-.06.2ZM177.51,126.64c-.07-.02-.13-.06-.18-.1.04.04.11.08.18.1ZM178.5,122.35l.45-.35.23.29-.45.35-.23-.29ZM184.01,131.77l.07-.16.1-.23.28.09.28.09-.18.39h0l-.45-.15-.11-.04h0ZM185.52,133.64s.03,0,.05,0h0s.07-.02.11-.06c.13-.15.25-.48.14-.52,0-.02,0-.03,0-.03h-.02s-.02,0-.03.02c0,0,.02,0,.03-.02h.02s0,.02,0,.03c.1.03-.02.37-.14.52-.04.05-.08.07-.11.06h0s-.04.02-.05,0c-.06-.03.07-.37.18-.54-.11.17-.24.5-.18.54ZM185.68,132.32l-.26.58-.25-.08-.17-.06h0l.26-.58h0l.42.14h0ZM187.24,134.19l.18-.39.28.09-.18.39-.28-.09h0ZM180.4,122.22c-.83-.68-1.72-1.32-2.65-1.92-.16.2-.54.44-.62.34-.21.02.13-.3.4-.47-7.42-4.67-17.83-6.64-28.36-5.27,4.76-1.62,9.06-2.06,13.02-1.94h0s-.03-.04-.03-.06v-.12s.02-.08.04-.12c.07-.15.17-.22.26-.23.06,0,.12,0,.15.05.06.06.07.17,0,.32-.02.04-.04.08-.07.11-.02.03-.05.05-.07.07.45.02.9.04,1.34.07.04-.03.08-.06.12-.07h.03s.07,0,.1,0h.02s.07.02.1.03h0s.06.05.09.08h0c5.74.46,10.73,1.94,15.29,2.43,3.97,1.32,7.78,3.2,11.49,5.26.05.13.1.26.15.38.29.71.58,1.43.82,2.16.08.24.15.48.23.72q.05.16,0,0c.06.2.12.39.18.59.56,1.78.99,3.58,1.4,5.4,0,.07.03.13.04.2,0,.2.07.44.11.63.07.41.15.82.21,1.24.06.4.12.8.17,1.2.02.19.04.38.06.57v.12c-4.83-4.11-11.36-8.86-14.04-11.75h.01Z"/>
        <path class="cls-1" d="M200.35,119.01s-.03-.07-.05-.09c0,0,0-.02,0-.03-.11-.3-.22-.61-.33-.91-.21-.56-.42-1.12-.64-1.68-.48-1.2-.99-2.39-1.53-3.57-.87-1.93-1.88-3.78-2.97-5.6-1.76-2.92-3.9-5.6-6.07-8.23-1.1-1.33-2.2-2.66-3.27-4.02-.3-.38-.59-.75-.88-1.13,0-.02-.03-.04-.04-.06,0,0-.02-.03-.04-.06-.17-.22-.33-.44-.5-.67-.87-1.18-1.75-2.27-2.87-3.23-2.39-2.05-4.65-4.26-6.96-6.4-1.97-1.83-3.93-3.75-6.37-4.93-.64-.31-1.29-.61-1.95-.9-.03.04-.07.07-.11.11-.43.33-.75-.02-.45-.35-2.1-.91-4.24-1.73-6.38-2.53-6.88-2.55-13.92-4.88-21.06-6.59-1.09-.26-2.18-.51-3.27-.74l-.09.07c-.05.04-.23-.06-.44-.19-.5-.11-1.01-.21-1.51-.31.49.55.88,1.08,1.05,1.26l-.22.19s-1.22-.93-2.16-1.71c-3.64-.67-7.3-1.17-10.99-1.42-.06.03-.11.02-.15-.01-1.98-.13-3.97-.18-5.97-.15-8.33.12-16.43,2.08-23.99,5.55-7.7,3.52-14.74,8.42-20.98,14.12-6.08,5.56-11.5,11.89-15.86,18.89-1,1.6-1.94,3.23-2.81,4.91-.94,1.8-1.71,3.62-2.93,5.26-1.36,1.82-2.01,4.03-2.55,6.21-.51,2.09-1.04,4.13-1.73,6.17-2.74,8.13-4.31,16.67-4.77,25.23-.45,8.41.04,17.05,2.81,25.07,2.73,7.93,7.38,15.44,12.87,21.75,5.37,6.17,11.81,11.36,18.93,15.38.15-.87.5-1.75,1.16-2.42l.06.31c.14.78.07,1.74-.09,2.73.1.05.19.11.29.16,4.29,2.3,8.79,4.15,13.41,5.65,2.31.75,4.56,1.65,6.88,2.38,2.38.75,4.78,1.4,7.21,1.97,9.65,2.23,19.67,2.98,29.54,2.05,9.51-.89,18.84-3.33,27.47-7.42,4.07-1.93,7.97-4.21,11.64-6.82,1.78-1.27,3.5-2.62,5.15-4.04,1.45-1.25,2.94-2.45,4.33-3.76,5.88-5.53,10.41-12.45,14.08-19.6,1.85-3.61,3.49-7.34,4.86-11.17,1.29-3.59,2.23-7.24,3.08-10.95,2.16-9.44,3.92-19.25,2.66-28.95-.67-5.15-2.15-10.12-4.47-14.77h-.02ZM193.32,114.84c-.04-.1-.07-.17,0,0h0ZM170.3,93.76c-.23-.29.22-.63.45-.35.11.14-.11.32-.45.35ZM170.4,89.31c.34.43.34.89-.11,1.24l-.22.17c-.23-.29-.12-1.06.34-1.41h0ZM168.01,84c.11.14-.34.49-.45.35s.56-.66.45-.35ZM165.48,84.24c.51-.67,1.13-.26.62.41-.17.22-.79-.19-.62-.41ZM165.98,85.56c-.11.32-.34.49-.45.35-.34.03.34-.49.45-.35ZM163.26,80.76l.45.63-.62-.41s.17-.22.17-.22ZM161.9,79.19c.34-.45.81-.14.46.31-.34.45-.81.14-.46-.31ZM158.63,77.37l-.34.45-.46-.31c.33-.12.81-.14.81-.14h0ZM141.46,78.44l-.28-.1-.43-.48c-.26-.29-.89-.77-.93-1.24l1.65,1.82h-.01ZM139.11,75c.17.19.5.76.5.76l-.33.28c-.26-.29-.41-.67-.45-1.14,0,0,.2,0,.28.1ZM133.79,71.04c.22-.19.48.1.26.29s-.48-.1-.26-.29ZM114.07,73.83l.46.31c-.5.34-.98.36-.98.36l.51-.67h0ZM78.51,81.03l.48.43-.35.36-.48-.43.35-.36ZM53.29,188.17l-.23-.2.33-.34.23.2-.33.34ZM54.35,190.36l.49-.5.34.3-.49.5-.34-.3ZM54.99,189.04c.28-.07-.54.77-.49.51-.11-.1.38-.61.49-.51ZM55.39,191.91l-.46-.41.33-.34.46.41-.33.34ZM59.93,199.7c-.49.5-.95.1-.46-.41.16-.17.62.24.46.41ZM66.93,203.9c.47-.07.58.53.11.6s-.58-.53-.11-.6ZM67.19,202.64c.24-.03.32.41.05.3-.24.03-.29-.26-.05-.3ZM67.33,206.13c-.47.07-.55-.38-.08-.45.47-.07.55.38.08.45ZM69.07,202.37c-.47.07-.55-.38-.08-.45.47-.07.55.38.08.45ZM91.33,216.48c0-.12.21-.99.19-1.23.14,0,.27-.14.27-.14l.13,1.94c-.27.01-.58-.46-.59-.58h0ZM91.38,213.19c.28.11.35,1.2.1,1.46-.13.13-.25-1.69-.1-1.46ZM101.4,221.63l-.22-.27c-.97-1.22-1.62-3.34-2.05-5.19.54-.19.75.08.97.35.86,1.09,1.83,3.18,1.3,5.11ZM104.64,220.31l-.22-.66.26-.07-.04.73ZM104.76,218.12c-.52.14-.68-.36-.17-.5.52-.14.69.36.17.5ZM106.31,219.39c-.54,0-.54-.52,0-.52s.54.52,0,.52ZM106.48,218.2c-.11-.33.41-.47.52-.14.06.16-.2.23-.52.14ZM108.48,218.88c-.27,0-.27-.52,0-.34.27,0,.27.34,0,.34ZM115.08,219.89c-.43.33-.75-.08-.32-.41.43-.33.75.08.32.41ZM98.33,215.09c-6.33-2.3-12.41-5.41-18.26-8.77-5.37-3.09-10.79-6.36-15.69-10.24-.36-.28-.7-.58-1.04-.87-.05-.05-.1-.11-.14-.16-.17-.2-.33-.41-.49-.62-.84-1.1-1.63-2.25-2.41-3.39-1.63-2.39-3.18-4.85-4.91-7.17-.1-.14-.2-.28-.3-.42.03.04-.19-.31-.23-.38s-.06-.11-.08-.13c0-.02-.02-.05-.04-.09-.1-.24-.21-.48-.31-.72-.44-.99-.89-1.98-1.35-2.96-.68-1.43-1.39-2.84-2.1-4.26-.33-.66-.66-1.33-.99-1.99-.15-.3-.29-.61-.44-.91-.07-.15-.14-.3-.21-.46-.01-.03-.03-.06-.04-.09-.59-1.37-1.11-2.75-1.61-4.16-.05-.18-.11-.35-.16-.53-.11-.38-.22-.77-.32-1.15-.11-.44-.22-.88-.32-1.32-.07-.3-.09-1.05-.28-1.29,0-.04-.02-.09-.02-.13-.04-.24-.09-.47-.13-.71-.09-.49-.17-.99-.24-1.48-.16-1.08-.3-2.16-.51-3.24-.04-.23-.08-.42-.11-.55-.06-.26-.13-.52-.18-.78-.03-.12-.08-.38-.1-.45-.1-.54-.19-1.07-.27-1.61-.07-.52-.13-1.03-.19-1.55,0,0,0-.09-.01-.15,0-.07-.01-.14-.01-.15-.02-.3-.04-.6-.05-.9-.05-1.11-.05-2.23-.01-3.34v-.09c0-.1.01-.19.02-.29.02-.26.03-.51.06-.77.04-.55.1-1.11.17-1.66.52-4.38,1.66-8.55,3.13-12.72,1.5-4.25,3.35-8.34,5.18-12.45,1.36-3.07,2.86-5.85,4.63-8.67,4.03-6.43,8.85-12.44,14.37-17.57,2.53-2.35,5.24-4.54,8.19-6.29,3.27-1.94,6.62-3.8,10.09-5.32,7.57-3.31,15.69-5.22,23.85-5.72.94-.06,1.89-.09,2.84-.11l.07-1.3.93.61c-.16.21-.36.47-.55.68h1.63c2.94.03,5.87.24,8.78.62-.03-.59.12-.74.78-1.4.14,0,.15.12.15.12l.02.26c0,.13-.09.91-.08,1.03v.1c3.93.55,7.8,1.41,11.59,2.53.91.27,1.82.56,2.73.86l.16-.14c-.52-.58-1.5-.59-2.11-1.26.8-.69,2.28.6,3.63,1.98,2.71.97,5.37,2.07,7.97,3.31,1.99.95,3.94,1.97,5.85,3.07,1.94,1.11,3.78,2.38,5.7,3.51.16.09.32.19.48.29.33-.02.75.09.75.09l-.27.21c3.19,1.95,6.22,4.15,9.05,6.6l-2.65-4.88.34-.45,3.44,6.32c2.69,2.44,5.19,5.1,7.43,7.95.65.83,1.27,1.67,1.87,2.53-.59-.07-.99-.11-.99-.11-.09,0-11.38-5.56-11.42-5.62-13.81-6.39-19.68-9.33-36.34-7.16-.88-.47-9.02,3.2-7.79,1.1,6.16-3.52,11.28-4.17,18.42-5.4.5-.03.57-.74.08-.86-11.74-3.67-22.77-1.74-32.08,3.57l.06.93-.16-.25-.04-.6c-5.21,2.99-9.87,7.04-13.81,11.76-2.6,4.11-3.54,3.69-1.42-.72,0-.12,5.5-7.24,5.52-7.36.45-.43,3.98-3.36,5.61-4.2.43-.39,4.15-1.5,2.42-2.21-8.79,1.28-15.43,6.89-19.96,13.55l.28-.24.08.47-.47.23-.22.03c-.13.2-.26.4-.39.6-.89,1.65-2.21,9.74-2.6,12.21-.67,1.63,8.4-2.49,8.32-2.17,3.07.25-12.68,8.77-12.55,9.2-3.92,1.32-4.08,8.58-5.41,11.86-1.04,1.16-13.44,15.03-11.72,17.27,1.79,2.33,4.67,6.31,4.45,5.57-1.43-5.71.42-3.99,4.33-6.56,2.93-1.26-2.21,4.78-2.69,4.34-2.28.73.83,7.47,2.43,7.97.27-.02,2.05-1.1,2.34-.99l6.33.63c2.05-.23,5.47-1.49,7.11-2.73.46-.26.91.36.51.71-4.15,4.65-11.02,4.06-15.25,3.35-1.53-.11,1.43,3.72,1.43,4.08,4.14,3.8,6.67,7.3,14.91,6.33,1.32-.4-2.24-3.06.69-7.04,4.3-3.94,8.57-8.81,13.92-6.68,3.52,3.93-.3,8.16-3.71,14.67.88.71,1.69,1.84,1.94,2.12l-.21.18s-1.2-.92-2.07-1.65c-2.6,5.14-4.8,11.67-3.03,20.51,2.75,8.24,5.76,10.17,11.47,15.67,0,0,0-.01.02-.02.03.04.06.08.08.12.1.09.19.19.29.28.3,0,2.23,1.23,4.82,2.78-6.89.03-13.76-1.59-20.2-3.93v-.05ZM173.93,107.43c-.23.17-.68-.4-.45-.57.68-.52,1.13.05.45.57ZM171.9,108.99l-.23-.29c-1.02-1.29-1.71-3.53-2.16-5.48.56-.2.79.08,1.02.37.91,1.15,1.93,3.35,1.37,5.4ZM164.71,108.41l-.22.19c-.35-.38-1.24-1.15-.87-1.81l.35.38c.24.48.74,1.24.74,1.24h0ZM149.02,128.99l.45.57-.45.35-.45-.57.45-.35ZM148.47,121.74l-.34.45-.31-.2.34-.45.31.2ZM145.96,120.76c-.33.12.53-.99.51-.67.15.1-.36.77-.51.67ZM145.63,117.85l-.34.45-.62-.41.34-.45.62.41ZM143.32,125.19c-.23.17-.68-.4-.45-.57.68-.52,1.13.05.45.57ZM143.52,118.12c.11.14-.11.32-.45.35-.23-.29.22-.63.45-.35ZM141.83,120.57l.23.75-.45-.57.23-.17h0ZM141.29,110.91c.45-.35.79.08.34.43-.45.35-.79-.08-.34-.43ZM139.68,108.3l-.22.17c-.23-.29-.12-1.06.34-1.41.34.43.34.89-.11,1.24h0ZM135.24,108.09c.57,0,.57.73,0,.73s-.57-.73,0-.73ZM134.67,110.27c-.29,0-.29-.54,0-.36.29,0,.29.36,0,.36ZM135.24,106.64c-.57,0-.57-.55,0-.55s.57.55,0,.55ZM135.53,97.19h.86v.55c-.57-.18-.86-.55-.86-.55ZM137.25,100.46v1.09c-.57,0-1.43,0-1.43-.18l1.43-.91ZM136.95,102.1c-.11-.14.56-.66.45-.35.11.14-.34.49-.45.35ZM137.25,103c0,.18-.57.18-.57,0,0-.36.86-.36.57,0ZM137.01,127.4l.46.31-.51.67-.46-.31.51-.67ZM134.2,105.53c.17.52.02.94-.53,1.09l-.27.07c-.12-.35.26-1.01.81-1.16h0ZM133.22,99.91c-.06-.17.76-.39.55-.14.06.17-.49.32-.55.14ZM132.56,109.56c-.12-.35.43-.49.55-.14.06.17-.22.25-.55.14ZM132.38,110.81c-.57,0-.57-.54,0-.54s.57.54,0,.54ZM130.62,115.74c-.02.09-.04.18-.06.27-.23.06-4.8,8.13-4.88,6.36,1.94-3.15,2.29-6.84,1.66-10.05-.02.28-.07.57-.14.85l-.23-.29c-1.02-1.29-1.71-3.53-2.16-5.48.21-.07.37-.08.5-.05-.24-.34-.49-.66-.76-.95-.1-.19-5.05-1.56-5.2-1.67-.71.02-1.54.16-2.44.39,0,.29-.05.56-.17.68-.06.06-.11-.25-.15-.6-4,1.08-9.27,3.78-11.95,5.23,1.26-3.77,8.5-8.26,14.94-9.12-.36-1.53-.41-2.42-.37-3.91-.77-.73-1.12-1.61-1.18-2.51l.43-.02c-.02,1.93,2.01,1.83,2.06,2.6v.13l-.27.14.08,1.15-.55.42.62.61.09,1.3c3.88-.31,7.35.81,8.86,4.37.55,1.44.99,2.47,1.3,3.35.47-.08.62.35.17.51.53,1.64.55,2.85-.04,5.65.31.12.31.46-.14.65h-.02ZM127.49,165.43c-1.77,2.1-7.61,8.5-11.64,12.9l2.18,2.41c.8.28,1.57.92,2.14,1.56.16.18.6.46.18.81-.77.23-3.88-2.93-5.06-4.18-1.91,2.08-3.3,3.6-3.47,3.78-4.59,7.06-4.28,13.66-3.79,17.99.18.11.22.36.06.51.22,1.8.44,3.16.26,3.92-1.87-.54-3.7-7.76-4.32-9.26v-.04c-.05.03-.12.04-.21.05-.85-.32-1.35-5.91-1.42-6.88l-.02-.36s.25-.38.24-.5l-.3-.35-.03-.49c-.04-.61.09-.74.73-1.38.14,0,.14.11.14.11l.02.24c0,.12-.08.86-.07.98l.03.49c0,.12.18.6.19.72,0,.12.02.36-.11.37l.25,3.77c.31.47.49,1.06.61,1.64.15-5.47.24-6.72,3.51-12.31-.05-.07-.05-.17.04-.25.06-.05.12-.06.17-.05,5.18-6.93,25.16-28.12,18.91-42.96,6.09,5.58,3.21,24.35.76,26.74l.02.02ZM129.95,176l-.43,1.2-.32-.41.32-.46.43-.33h0ZM127.55,175.75c-.16.21-.6-.08-.29-.19.16-.21.46-.02.29.19ZM126.25,177.44c.32-.42.76-.13.44.29-.32.42-.77.13-.44-.29ZM126.12,174.17c.32-.42.91-.04.59.39-.32.42-.91.04-.59-.39ZM124.94,173.39c-.32.42-.76.13-.44-.29.32-.42.76-.13.44.29ZM114.91,188.71l-.27-.09-.41-.45c-.25-.27-.84-.73-.89-1.18l1.56,1.73h.01ZM113.17,186.17l-.31.27c-.25-.27-.39-.63-.43-1.08,0,0,.19,0,.27.09.16.18.47.72.47.72h0ZM110.11,206.49v.52c-.54-.17-.81-.52-.81-.52h.81ZM108.48,205.11v-.52l.54-.17h.54l-1.09.69h.01ZM110.92,209.58v1.03c-.54,0-1.36,0-1.36-.17l1.36-.86ZM110.92,211.99c0,.17-.54.17-.54,0,0-.34.81-.34.54,0ZM110.64,211.14c-.11-.14.53-.63.43-.33.11.14-.32.46-.43.33ZM107.63,208.93c.06.16-.47.3-.52.14-.06-.17.72-.37.52-.14ZM105.92,203.81c-.52.14-.69-.36-.17-.5s.68.36.17.5ZM106.93,179.89l-1.15-1.27.31-.27s.76.64,1.01.91l.99,1.09-.1.09c-.1.09-.78-.46-1.05-.55h0ZM114.68,131.75l.03.51c-.11.52-.2,1.43-.2,1.43l-.29.02c-.03-.51-.26-1.66.45-1.95h0ZM115.38,167.72l.18-.52.32-.42-.06,1.23-.44-.29ZM116.77,106.44c.14,0,.28-.14.28-.14l.14,2.05c-.29.02-.61-.48-.62-.61,0-.13.22-1.04.2-1.3ZM117.97,167.52l.44.29c-.47.33-.93.34-.93.34l.49-.63h0ZM118.01,111.91c.15.12.24,1.4.11,1.67-.13.26-.28-2.04-.11-1.67ZM125.51,120.8v-.55c.29.18.57.55.57.55h-.57ZM105.74,154.67c-.02.31-.18.52-.32.42-.31.11.18-.52.32-.42ZM130.75,100.56c-.33-.1.49-.32.55-.14-.22.25-.49.32-.55.14ZM131.79,93.85c.55-.14.72.38.17.52s-.72-.38-.17-.52ZM134.07,91.73c-.55.14-.78-.55-.23-.7.55-.14.78.55.23.7ZM133.99,93.27c-.28.07-.45-.45-.12-.35.27-.07.39.28.12.35ZM86.67,139.22c-1.07-6.29,10.22-7.18,13.01-7.62-2.83,4.42-7.03,6.75-13.01,7.62ZM97.87,163.79c-.21.18-.54-.19-.33-.36.21-.18.54.19.33.36ZM91.36,156.41c-.21.18-.54-.19-.33-.36.21-.18.54.19.33.36ZM89.07,128.43c.22-.19.47-.23.49-.07.28.12-.47.23-.49.07ZM99.98,100.24l.06.31c.25,1.41-.15,3.41-.61,5.08-.52-.09-.58-.4-.64-.72-.23-1.26-.1-3.37,1.19-4.68h0ZM123.62,197.73c-1-.1-1.77-.55-2.34-1.17-.38.5-.75,1.02-1.13,1.55-.07.05-4.51,13.82-4.55,13.9-1.61-1.88-1.33-14.39-1.31-16.1.22-1.06,1.61-2.81,3.13-4.48-.31-.16-.64-.24-.99-.62l.41-.35c-.49-.55-1.42-.56-2-1.19.7-.6,1.94.39,3.13,1.57,1.84-1.95,3.71-3.66,3.89-3.83,3.77-2.34,6.89-5.49,9.35-9.17-.12,0-.2-.03-.2-.03l.45-.34c9.99-15.32,8.88-39.56-3.04-53.81,21.08,12.1,20.23,33.76,12.5,49.36-7.08,10.57-13.61,15.54-19.54,23.4l.17-.15c1.13,1.45,2.58.21,3.07.76l.08.09-.12.27.74.82-.17.63.83.1.91,1c.25.27,1.61,1.37,1.6,2.18-.31.27-1.71-1.28-2.14-1.56-1.28-1.01-1.85-1.64-2.74-2.82h0ZM137.92,187.79c.21-.16.43.11.22.27-.21.16-.54-.24-.22-.27ZM137.7,186.65c-.43.33-.86-.21-.43-.54.43-.33.86.21.43.54ZM136.41,185.02c-.43.33-.75-.08-.32-.41s.75.08.32.41ZM136.14,188.74c-.29-.19.03-.62.32-.42.15.1-.02.31-.32.42ZM134.97,184.78c.44.29.57.7.25,1.12l-.16.21c-.29-.19-.41-.91-.08-1.33h0ZM134.72,189.72c-.32.42-.76.13-.44-.29.32-.42.76-.13.44.29ZM135.33,181.48c-.22-.27.43-.76.43-.33.11.14-.32.46-.43.33ZM131.19,187.7l-.32.42-.44-.29c.31-.11.76-.13.76-.13h0ZM127.73,200.03c.06.27-1.42-1.37-1.07-1.18.19,0,1.01.91,1.07,1.18ZM123.94,196.65c-.21.18-.74,0-.83-.1-.08-.09-.45-.9-.62-1.09.1-.09.12-.27.12-.27l1.32,1.46h0ZM143.76,217.67l-.22-.27c-.97-1.22-1.62-3.34-2.05-5.19.54-.19.75.08.97.35.86,1.09,1.83,3.18,1.3,5.11ZM144.07,211.98l.21-.16.22.71-.43-.54h0ZM145.69,216.19c-.21.16-.64-.38-.43-.54.64-.49,1.07.05.43.54ZM148.19,211.99c-.31.11.5-.94.49-.64.15.1-.34.73-.49.64ZM148.24,211.06l-.44-.29.49-.63.44.29-.49.63ZM150.25,213.34l-.29-.19.32-.42.29.19-.32.42ZM151.35,202.32c-2.02,1.22-3.75,2.45-5.24,3.68l1.76,3.24-.32.42-1.82-3.34c-3.57,3.04-5.62,6.04-6.83,8.74-.87.33-1.75.63-2.64.92.23.45.68,1.14.68,1.14l-.21.18c-.24-.26-.75-.72-.87-1.19-.74.24-1.49.47-2.24.68,2.12-5.29,6.67-10.38,10.52-13.38l-.39-.71.32-.42.46.84c1.2-.9,2.32-1.59,3.27-2.01,4.42-2.03,4.25-1.26,3.54,1.22h.01ZM137.95,200.86l-.43.33-.32-.41c.32-.03.75.08.75.08ZM138.15,195.46c-.11.3-.32.46-.43.33-.32.03.32-.46.43-.33ZM139.65,194.32c-.11-.14.53-.63.43-.33.11.14-.32.46-.43.33ZM140.32,203.41c.43-.33.75.08.32.41s-.75-.08-.32-.41ZM142.24,200.19l-.21.16c-.22-.27-.11-1.01.32-1.34.32.41.32.84-.1,1.17h0ZM142.68,202.91c.11.14-.11.3-.43.33-.22-.27.21-.6.43-.33ZM156.68,178.93c-7.22,9.35-21.81,13.9-28.57,29.22-.93-2.72,2.78-12.69,8.24-18.26-.18-.06-.22-.3.06-.51.22-.17.42-.14.49-.02.51-.48,1.03-.93,1.57-1.32,8.6-6.04,13.14-15.97,13.35-16.43,3.26-10.14,6.47-23.09-.43-34.14.24-.08-7.41-7.29-5.46-6.8.09.1,12.02,8.37,12.06,8.5,6.74,10.47,6.06,30.58-1.31,39.78v-.02ZM146.52,138.39c-.34.03.79-.84.68-.52.11.14-.56.66-.68.52ZM147.88,140.11l.45-.35.23.29-.45.35-.23-.29ZM152.8,145.38l.04-.47.19-.42.22,1.03-.45-.15h0ZM161.95,147.95c.19-.42.64-.27.45.15s-.64.27-.45-.15ZM177.91,174.97c-5.19,8.76-10.36,12.86-14.68,19.76-.05.04-2.57,10.32-2.6,10.38-1.42-1.22-2.12-10.25-2.23-11.49.23-1.81,5.11-6.77,5.38-7.03,6.07-4.28,9.46-10.98,10.41-18.17-.55-.43-1.08-.89-1.57-1.34.34-.37.64-.27.94-.17.24.08.5.19.77.32.23-2.45.18-4.94-.14-7.41-.08-.05-.11-.17-.05-.34-1.01-7.25-4.36-14.22-9.82-19.03,17.67,6.99,18.6,22.65,13.6,34.51h0ZM163.6,148.5c.19-.42.79-.22.6.2-.19.42-.79.22-.6-.2ZM164.9,151.34c-.19.42-.64.27-.45-.15s.64-.27.45.15ZM164.9,149.42c.09-.21.39-.11.3.1s-.54.06-.3-.1ZM168.69,154.76c.06.26-.04.47-.19.42-.24.16.04-.47.19-.42ZM169.53,152.88c.15.05-.04.47-.19.42-.15-.05.13-.68.19-.42ZM170.42,158.94c.24-.16.64-.27.64-.27l-.19.42-.45-.15ZM185.97,168.69l-.6-.2.19-.42.6.2-.19.42ZM186.43,169.56l.28-.63.45.15-.28.63-.45-.15ZM187.05,170.49c-.24.16.23-.88.28-.63.15.05-.13.68-.28.63ZM189.14,171.18l-.3-.1.19-.42.3.1-.19.42ZM192,154.18c-5.65-8.82-10.58-17.58-20.97-22.16-.93-.5-11.4-3.83-16-4.08-.53-.07-.49-.85.04-.87,3.63-.15,8.14-.25,9.06.15,1.08.5,4.25.98,6.36,1.29,1.38.4,2.67.82,3.9,1.26,2,.95,4.25,2.02,6.62,3.08,4.84,2.92,8.54,7.08,12.63,13.94-.43,2.48-.98,4.95-1.65,7.39h.01ZM178.5,122.35l.45-.35.23.29-.45.35-.23-.29ZM180.4,122.22c-.83-.68-1.72-1.32-2.65-1.92-.16.2-.54.44-.62.34-.21.02.13-.3.4-.47-7.42-4.67-17.83-6.64-28.36-5.27,17.41-5.93,28.84,3.88,38.96-.31.19.34.38.69.57,1.06.54,1.02,1.05,2.06,1.54,3.11.06.12.29.71.14.31.08.22.17.44.26.66.19.48.38.95.57,1.43.29.71.58,1.43.82,2.16.08.24.15.48.23.72q.05.16,0,0c.06.2.12.39.18.59.56,1.78.99,3.58,1.4,5.4,0,.07.03.13.04.2,0,.2.07.44.11.63.07.41.15.82.21,1.24.06.4.12.8.17,1.2.02.19.04.38.06.57v.12c-4.83-4.11-11.36-8.86-14.04-11.75v-.02Z"/>
      </g>
    </g>
    <g>
      <g>
        <path class="cls-3" d="M30.38,86.69c-.24.28-.29.63-.48.95-.96,1.42-2.01,2.77-3.1,4.08-.27.33-1.42,1.59-1.65,1.87-.08.09-.44.43-.52.52l-.08.09-.23.37c-.15.27-1.04,1.43-1.28,1.71.05.52,2.22,4.65,2.57,5.1.71.67,1.98,1.34,1.86,2.52-.04.52-.53.91-.57,1.43l-.55.65c-.59.7-1.32,1.28-1.86,1.94-.27.33-.31.85-.55,1.13-.63.75-1.82,1.5-2.7.76-1.73-1.45-2.88-4.72-4.05-6.74-1.83-3.13-3.86-6.02-5.77-9.14-.15-.2-.26-.45-.44-.61l-5.73-9.66c-.39-.49-.16-.37-.47-.87-1.19-2.19-2.58-4.23-3.72-6.46-1-2.03-1.64-2.41-.27-4.52.38-.64.77-1.1,1.24-1.67,1.02-1.21,2.25-2.01,3.56-2.82.45-.26,1.27.19,1.76-.11.96.09,1.82.49,2.67.8l3.95,1.64c.25.37.84.23,1.17.5v.09l.08.3.09.08c.36.14,2.16.94,2.6,1.07.05.04.13.03.18.07.55.3,1.14.72,1.76.84,3.63.89,6.85,2.64,10.26,4.08.86.4,2.04.6,2.89.91,1.96.69,3.85,1.48,5.73,2.18.5.26,1.29.36,1.71.72.09.08.32.19.3.41.37-.16,2.12.51,2.45.78l.05.04c0,.09.3.49.35.53.09,0,.52-.05.64-.1,0,.56.09.55.06,1.16v.09c.19.16.55-.18.63-.27l-.62,1.31.03.34s-.45.73-.64,1.05l-.04.05c-.55.65-1.23,1.28-1.74,1.88-.24.28-.25.58-.45.82-.39.47-1.1,1.22-1.74,1.32-2.72.5-6.73-2.31-9.24-3.3l-.08.09h-.02ZM18.19,88.23c1.45-1.73,2.68-3.48,4.13-5.21.08-.09-.02-.17-.06-.21-.37-.31-1.07-.34-1.48-.61l-3.03-1.03-5.65-2.75c-.07.65,1.82,3.04,2.32,3.78.19.24,1.38,2.43,1.57,2.67l.25.37c.26.45,1.51,2.46,1.81,2.87l.14.12h0ZM6.53,77.1c.08-.09-.11-.25-.19-.16s.11.25.19.16ZM21.81,77.19c.09,0,.13-.05.12-.14-.09-.08-.21.06-.12.14ZM40.9,84.86l-.09-.08-.08.09h.17Z"/>
        <path class="cls-3" d="M44.43,76.19c-.15-.12-1.21-.52-1.35-.5l-2.44-1.39c-1.74-1.33-3.91-2.98-5.24-4.8-1.53-2.13-2.65-4.39-3.84-6.66-.63-1.19-1.55-2.26-2.2-3.59l-2.81-4.42c-2.61-6.45-.52-12.83,5.19-16.57l1.33-.87c.97-.63,2.29-.84,3.41-.91.98-.06,1.95-.25,2.88-.28,2.74-.04,5.45,1.32,7.03,3.41.53.82.9,1.16,1.18,2.14-.19,2.16-1.09,2.9-1.35,3.06l-.1.07c-1.48.97-4.07,1.79-5.79.94-.27-.19-.59-.56-.77-.73-.95-.9-2.59-.85-3.62-.19-1.58,1.03-1.45,3.79-1.32,5.45-.02.08,0,.22-.02.3-.02.3.64,4.32,3.48,7.33.07.1.18.39.16.47l3.05,4.12.2.31c2.19,2.79,2.81,3.63,6.5,4.49.83.26,2.08.17,2.74-.26.31-.2.04-.61.06-.91l.14-.89.31-.2c.13.2.13.42.26.63,0,0,.12.07.15.12.51-2.01-.77-4.3-1.86-5.85-.07-.1-.23-.36-.28-.32-.93.46-1.82,1.12-2.85,1.43-2.03.45-3.65-1.91-4.6-3.25l-.62-.83c-.03-.05-.32-.59-.45-.8s-.43-1.1-.32-1.39c.68-.74,1.12-.95,1.89-1.45,1.58-1.03,3.13-1.9,4.81-2.78l3.57-1.89c.59-.32,1.22-.36,1.84-.19.83,1.5,2.27,2.59,3.22,3.93.45.58.66,1.24,1.15,1.87.27.41.8.79,1.07,1.19l.18.17,1.01,2.11c.45.8,1.05,1.5,1.33,2.26.11.51.75,2.71.92,3.19-.01,1.1.54,1.83.43,2.78-.23,3.21-1.87,4.5-4.2,6.38l-.2.13c-.61.4-1.02.89-1.63,1.29-3.37,2.2-7.28,3.45-11.43,2.44-.03-.05-.2-.09-.2-.09h0ZM47.18,74.39c.03.05.08.02.1-.07-.07-.1-.17-.04-.1.07ZM47.76,74.37l.1-.07c-.2-.09-.34-.07-.49.03.1.15.29.1.39.04ZM48.86,74.38l.15-.1c-.2-.09-.66-.23-.91-.06l-.05.03s.81.13.81.13ZM32.42,43.64l.03-.17-.1.07.07.1ZM32.76,43.27l.07-.12-.1.07.03.05ZM53.55,73.21l.15-.1c-.3-.02-.59.1-.8.23.17.26.44,0,.64-.13h.01ZM41.1,55.15c.03.05.08.02.05-.03s-.14.02-.05.03ZM33.13,42.95l.1-.07-.17-.03.07.1ZM46.14,59.42l-.1-.15c-.2-.31-.62-.83-1.06-.62l.08.02c.27.41.58.78,1.07.75h0ZM36.83,41.04c.1-.07-.03-.27-.13-.2l.13.2ZM38,40.72c-.18-.17-.34-.07-.49.03l-.2.13c.29.1.49-.03.69-.16ZM42.84,44.33l-.07-.1-.95-.11-.1.07c.2.31.76.38,1.11.15h0ZM59.68,66.88l-.03-.05c-2.46,3.14-.42,3.48.03.05ZM49.93,55.41c.1-.07-.02-.14-.12-.07s.02.14.12.07ZM39.87,38.77l.2-.13-.17-.04-.1.07.07.1ZM52.94,57.01c.03.05.15.12.15.12.09-.2-.18-.61-.36-.78-.2.13.08.46.21.66ZM52.72,55.78c.02-.08-.05-.19-.1-.15-.08-.02.05.19.1.15ZM52.52,55.25c.05-.03-.07-.1-.12-.07-.1.07.02.14.12.07ZM42.8,39.7l-.03-.05c-.1-.15-.38-.48-.71-.41l.12.07c.2.31.42.31.62.4h0ZM58.23,60.77l.1.15c.19-.27-.94-2.22-1.08-2.43l-.07-.1c.14.78.53,1.7,1.04,2.38h.01ZM57.04,58.05c.05-.03-.02-.14-.07-.1s.02.14.07.1Z"/>
        <path class="cls-3" d="M74.56,47.35c-.55-.37-1.37-1.08-2.06-1.66l-.45.19c.49,1.18,1.09,2.32,1.57,3.5.32.79.53,1.3.74,2.13l2.39,5.81c.16.39.59.48.78.93.32.79-1.02,1.54-1.56,1.83l-.11.05c-.32.2-1.32.8-1.49.87-.06.02-.71.36-.99.47-1.01.42-3.97,1.56-4.85.21l-15.33-36.98c-.02-.06.12-.18.18-.21.38-.35.51-1,.62-1.05l.06-.02c.06-.02.55-.1.61-.12.56-.23.93-.78,1.55-1.03.17-.07.43-.24.67-.14,1.36-.69,2.74-.86,4.26-1.49l2.48-1.02c1.35-.56,2.9-.8,4.2-1.33,7.06-2.7,10.7-1.37,14.2,2.01,2.04,1.93,3.67,3.96,4.74,6.55.76,1.86,1.17,4.13.7,6.04-.16.73,0,1.31-.15,2.04-.2.48-.51,1-.85,1.47-.89,1.35-1.47,2.51-2.75,3.57-.15.13-.72.49-1.16.87.31.27,1.48,1.37,1.74,1.66,1.43,1.39,3.05,2.77,4.65,3.95.6.35,1.32.64,1.87,1.01.39.3.71.76,1.15,1.04l.69.24c.43.09,2.38,2.12,2.62,2.68.14.34-2.83,2.09-2.94,2.13-1.01.42-6.41,2.04-6.96,1.81-.06.02-.27-.35-.3-.4l-.72-.3c-1.6-.86-2.46-1.49-3.93-2.67-.02-.06-.35-.38-.38-.44-.21-.18-.92-.81-.95-.86l-3.9-2.75c-.17-.26-.38-.44-.64-.59ZM62.13,41.13c.03-.08-.11-.42-.19-.45s.15.53.19.45ZM61.78,40.29l.07.17c.17-.07-.03-.38-.05-.44l-.09-.23c-.02.27,0,.33.07.5ZM70.16,60.69c.02.06.08.03.14.01s.47-.13.59-.18c.17-.07,1.67-.75,1.57-.98-.79.32-1.24.18-1.69.37-.17.07-.72.49-.63.72,0,0,.02.06.02.06ZM61.57,39.45c.06-.02-.01-.19-.09-.23-.06.02.06.31.09.23ZM56.65,27.18l.21.51c-.1-.55-.16-.72-.33-1.12l-.12-.28c-.08.29.12.61.23.89h.01ZM69.62,58.41c.06-.02.03-.08-.02-.06s-.01.14.02.06ZM66.61,41.47l.13-.32-.23.09.09.23h.01ZM69.33,38.63c7.75-2.13,10.84-3.27,6.04-10.78-1.69-2.67-5.6-1.45-8.99.4-.37.22-.77.38-1.08.58l4.03,9.81h0ZM80.91,31.37c.11-.05.02-.27-.09-.23s-.02.27.09.23ZM81.65,30.94c.06-.02,0-.14-.05-.11s0,.14.05.11ZM78.15,21.77l.11-.05-.05-.11-.11.05.05.11ZM78.44,21.85c.02.06.16.07.16.07l-.05-.11h-.14l.02.05h0ZM79.65,22.86l-.07-.17c-.09-.23-.35-.38-.59-.48l.05.11c.12.28.34.52.62.54h0ZM84.29,33.67c.06-.02,0-.14-.05-.11s0,.14.05.11ZM81.56,24.78c.06-.02.03-.08-.05-.11-.06.02,0,.19.05.11ZM84.65,28.78l-.14-.34c-.14-.34-.36-1.04-.82-1.04l.07.17c.12.28.44,1.07.89,1.21ZM84.85,30.22c-.02-.06.04-.22,0-.33l-.05-.11-.11.05.16.39ZM84.77,29.39l.11-.05-.05-.11-.11.05.05.11Z"/>
        <path class="cls-3" d="M100.55,41.98c-.3-1.68-1.07-3.21-1.4-5.07-.03-.18-.21-1.88-.26-2.12l-.29-1.62c-.41-2.28-1.06-4.52-1.47-6.86-.92-5.16-1.26-10.48-1.83-15.77-.06-.36-.33-.81-.02-1.17,1.27-.17,2.26-.53,3.52-.75s1.98.02,3.44.19c.69-.31,1.77.55,2.23,1.02.04.24.33,1.18.38,1.42,0,.06.03.86.04.92l.04.24c.68,3.78,1.72,7.55,2.41,11.39.19,1.08.21,2.19.41,3.33l.19,1.08c.06-.01.17.28.18.34v.06c.04.18.18,1.64.2,1.76l.02.12c0,.06.15.16.16.22.28,2.24,1.13,4.25,1.53,6.47.1.54,0,1.11.12,1.71v.06c.02.06.17.53.18.59v.06c.16.84.19,1.7.34,2.54.26,1.44.62,2.8.88,4.24l.24,1.32c-.09,1.56-1.87,2.01-3.13,2.23-1.5.27-4.82.74-6.11-.58-.77-.85-1.49-3.51-1.7-4.65-.17-.96-.14-1.83-.3-2.73h0ZM99.15,10.96c.17-.09.04-.44.03-.5l-.66.12c.06.36.45.11.63.38ZM105.73,48.48l1.2-.21-.02-.12s-.62-.32-.83-.47c-.13-.04-.4-.18-.4-.18l-.2.28s-.16.15-.22.16v.06c.03.12.35.5.47.48ZM104.19,27.77c.06-.01.04-.13-.02-.12-.12.02-.09.2.02.12ZM108.01,48.07l.18-.03c.05-.07.29-.11.28-.17l-.02-.12c-.19-.71-.71-2.23-.71-2.23l-.21-.15c-.12.39-.06.69,0,1.05.11.6.16.9.4,1.54,0,.06.07.05.08.11h0ZM107.66,46.46c-.12.02-.16-.22-.04-.24.06-.01.1.23.04.24Z"/>
        <path class="cls-3" d="M119.62,41.98c-.25-.87-1.13-3.19-1.12-3.37l-.64-4.13c-.16-1.23-.2-2.52-.3-3.75-.05-.13-.29-1.18-.28-1.3l.03-.43c.11-1.7.17-3.53.71-5.14.18-.84,1.4-4.49,1.69-5.26-.1-3.18,2.5-6.49,4.7-8.36,0-.12.39-.34.45-.4.63-.32.64-.51,1.22-.84,2.24-1.5,5.41-1.54,7.91-1.37,1.28.08,2.66.48,3.91.87,2.81.92,5.91,2.1,6.67,5.32.33,1.43.87,2.5.77,4.02-.02.36-.17.72-.2,1.15,0,.18.1.37.08.62-.13,1.95-1.94,3.41-3.7,3.3-2.07-.14-4.76-.93-5.15-3.45-.11-.19-.34-2.22-.33-2.4-.09-.56-.51-.58-.94-.61h-.12c-2.37-.16-4.76.84-6.35,2.75-.2.23-.14.3-.22.6,0,.06-.02.3-.08.36-.89,1.41-1.54,5.82-1.64,7.34l-.07,1.09c-1.46,11.93,6.74,18.21,10.59,7.9.08-.24.15-.48.23-.66.81-2.08,1.03-2.62,3.46-2.46,2.31.15,4.55.48,5.61,2.87.11.25.1.31.09.56-.02.3-.46,1.37-1.87,4.27-.38,1.2-1,2.19-1.62,3.19-.54.76-.91,1.77-1.57,2.46-2.56,2.76-6.39,3.3-9.85,3.08-2.19-.14-3.97-.87-5.86-1.85-2.48-1.26-4.13-3.08-5.88-5.33,0-.06-.27-.51-.32-.63h0ZM121.74,30.33c0-.06.12-.91.13-1.09.03-.43.13-1.09,0-1.71l-.07.18s-.1.54-.1.66c-.04.67-.08,1.28.05,1.96h0ZM121.88,27.23l.02-.24-.07.12.05.13h0ZM132.4,11.25c.06,0,.25-.04.26-.23v-.06c-.06,0-.11-.07-.17-.07h-.06c-.06,0-.25.04-.25.04l-.06.06c0,.18.17.26.29.26h0ZM132.88,47.5h.12c0-.17.28-.58.3-.83v-.06c-.06,0-.73-.05-.75.32-.02.24.09.55.33.57ZM141.15,20.2v.06c.12-.05.37-.16.38-.28s.02-.24-.16-.32c-.19.11-.21.35-.22.53h0ZM140.76,40.08c.06,0,.06-.06,0-.06s-.07.12,0,.06Z"/>
        <path class="cls-3" d="M156.53,57.19c-1.74-1.25-3.83-2.77-4.9-4.75-2.63-5.05-1.55-11.29.39-16.36.07-.17.27-.55.3-.6,1.14-2.3,2.43-4.81,3.78-6.97.02-.58,1.67-1.97,2.03-2.42,1.65-2.11,3.18-4.72,5.6-5.95.47-.21,2.44-1.09,2.85-1.32,1.1.03,2.26-.44,3.34-.55.21.14.31.05.56.08,1.55.2,2.89.45,4.32,1,5.46,2.09,9.14,5.78,9.29,11.71.09.62.44,1.41.37,2.1-.02.06-.05.31-.04.44-.13.67-.32,1.51-.39,2.2.04.41.09.95,0,1.37-.62,2.31-1.02,4.7-1.89,6.98-.11.28-.3.6-.55.77l-.28.74c-.26.68-.47,1.39-.71,2.01-.65,1.71-1.88,3.2-2.85,4.72-.91,1.35-2.11,2.45-3.2,3.6-.71.84-1.37,1.7-2.3,2.25-3.62,2.14-7.8,2.3-11.67.82l-.28-.11c-.51-.2-2.97-1.27-3.52-1.54-.06-.02-.18-.2-.24-.22h0ZM164.39,19.09c.02-.06.19,0,.11.04-.04.11-.1.09-.11-.04ZM160.26,42.83c-.35,2.8-.34,7.7,2.79,8.9.57.22.86.13,1.69.19,2.18-.08,2.69-.73,3.76-2.15.12-.15.17-.26.29-.41l1.07-1.42c.5-.79.81-1.78,1.12-2.57,1.35-3.53,2.6-6.97,3.02-10.79.12-1.52.11-5.05-.98-6.31-.2-.34-.82-.58-1.11-.69-3.24-1.24-5.82,1.56-7.54,3.84-.58.82-.97,1.85-1.6,2.65,0,0-.27.03-.29.08l-.13.34c-.54,1.42-.69,3-1.37,4.43.22.61-.64,3.21-.71,3.9h0ZM157.18,55.48l.11.04-.07-.16-.04.11h0ZM160.19,49.65l.17.07c-.05-.21-.12-.37-.35-.46-.09.23,0,.33.18.39h0ZM160.35,50.1l.11.04-.07-.16-.04.11h0ZM165.44,57.59c.06.02.12-.15.07-.17-.11-.04-.18.13-.07.17ZM166.26,57.32c-.06-.02-.08.04-.1.09l.06.02s.08-.04.1-.09l.02-.06-.08.04ZM180.82,33.6l.02-.06c.04-.11.02-.38-.1-.43-.07.17-.02.38.07.49h0ZM174.93,50.2l.11.04.09-.23c-.08.04-.16.07-.2.18h0Z"/>
        <path class="cls-3" d="M178.29,67.15c-.33-.28-.9-1.01-.89-1.4.79-1.41,1.79-2.96,2.81-4.25.24-.28,2.02-2.28,2.21-2.6.08-.09.35-.5.34-.59l5.14-6.9s.43-.6.55-.74c2.01-2.37,4.29-4.59,6.4-6.88l.24-.28c1.43-1.59,4.71-5.36,4.75-5.4.2-.23,1.92-1.89,2.4-2.36.09,0,.73-.58.86-.63.04-.05.31-.46.35-.42.54-.26,2.45,1.36,3.59,2.09l2.08,2.73c.33.36-.04,1.08-.18,1.44-.45.9-.72,1.79-1.44,2.45l-4.39,6.11-.04.05c-.87,1.02-1.8,1.83-2.66,2.85l-.99,1.16-.02.3c-.36.33-1.9,2.14-2.17,2.55-.12.14-.82,1.06-.94,1.2l-.08.09c-.43.51-.92.9-1.39,1.45-.08.09-.35.5-.47.64-.02.22-.29.63-.45.82l-4.26,5.58.14.12c1.07.91,2.08,1.69,3.11,2.56l1.39,1.18c.14.12,1.12,1.03,1.26,1.15.52.52,1.05.74,1.06,1.38.06.21.09,1.12.15,1.33-.31.46-.26.58-.34,1.15-.17.58-.64,1.22-1.07,1.73-.59.7-2.19,1.73-3.12.95-.33-.28-.49-.65-.76-.89l-.23-.2-4.27-2.51-8.66-7.03v.02ZM190,58.07c-.61.44-.93.81-1.48,1.46l.14.12s.38-.16.46-.17c.04-.05.19-.32.19-.32l.23.2c.12-.14.03-.22-.07-.3l.2-.23.19.16.03-.13.03-.22.08-.09.34-.03,1.34-1.58v-.17c-.33-.1-.58.48-.92.59.18.07.06.21-.02.3-.24.28-.46.17-.75.41h.01ZM188.32,60.24l.14.12s.11-.23.06-.35c0,0-.2.23-.2.23ZM206.52,39.56c.12-.14.27-.41.16-.66l-.13.05-.04.05c-.16.19-.18.4,0,.56h.01ZM188.85,59.81c-.08.09-.03.13.05.04.04-.05,0-.09-.05-.04Z"/>
        <path class="cls-3" d="M219.23,90.35c.05-.13.16-.38.04-.52s-.34-.11-.42-.2c-.16-.18-.1-.4.04-.52-.85-.15-.9-.67-1.51-1.19-.08-.09-.77-.62-.85-.71l-.12-.14s-.15-.27-.19-.32c.4-.19.76.88,1.17.52-.08-.09-.78-1.18-1.05-.94,0,0-.1.17-.11.25-.96-.46-1.44-1.58-2.31-2.03-.42-.2-.71.21-.98.36-.67.34-1.6.57-2.32.95-.71.29-1.27.86-1.99,1.23-.09.08-.92.23-1.01.23l-.37.32c-.77.5-1.6.66-2.42,1.12-.43-.03-.83.15-1.22.17-1.17.04-3.41-1.72-4.21-2.65-.16-.18-2.4-3.16-1.98-3.6l.6-.52c.55-.48,1.18-.78,1.74-1.25.09-.08.14-.2.28-.32l.05-.04.43.03c2.2-1.09,4.58-2.34,6.81-3.21l.58-.17,7.97-4.38c.57-.17,1.1-.87,1.66-.87l8.63-4.46c.79-.2,1.44-.76,2.24-1.13.9-.45,1.91-.68,2.8-1.04,2.18-.83,3.43-1.9,5.65.12l2.27,2.63c.63.82,1.53,2.14,1.97,3.13.51,1.25-1.44,4.86-1.94,5.69-.11.25-.88,1.4-1.07,1.65.38.07.05.44-.08.56l-.14.12-.18.07s-.04.6-.41.92c-.09.08-.31.11-.4.19s-.23.2-.15.29c0,0,.17.01.25.1-.37.32-.49.74-.77,1.07-.89,1.49-1.7,3.07-2.75,4.46l-.42.36s-.26.63-.32.75l-.6.52s-.02.26-.07.3c-.17.55-.71.85-1.05,1.3-.51.44-1.33,2.19-1.76,2.81-.05.13-.73,1.11-.82,1.19-.3.5-.52,1.17-.9,1.57-.75.72-1.49,1.44-1.96,2.49-.05.04-.28.8-.28.89-.42,1.01-1.31,1.93-1.9,2.84-.53.78-.83,1.93-1.45,2.61l-.78.68c-.61.69-.71,1.42-1.4,2.01-.32.28-.67.34-1.04.57-.28-.32-.57-.47-.85-.8-.24-.28-.17-.57-.41-.85-.08-.09-.36-.42-.54-.26.04.05-.03.34.01.39l-.09.08c-.12-.14-.67-.31-.75-.32-.04-.05-.6-.04-.64-.09h-.09c-.24-.28-.44-1.08-.68-1.35-1.87-2.73-2.6-4.51-.16-7.1l4.72-6.56h0ZM200.43,84.68c.2.23.82-.54,1.16-.52l.06-.21c-.38-.07-.83.07-1.1.31-.09.08-.28.24-.12.42h0ZM215.4,76.28l.08.09.23-.2c-.09,0-.22.03-.31.11ZM216.65,75.69l.13.05-.08-.09-.05.04h0ZM217.23,75.51h.17v-.16s-.16,0-.16,0v.16ZM214.71,85l.12.14.09-.08-.12-.14-.09.08ZM219.37,87.9c.09-.08.14-.21.2-.33l.04.05c.12.14.1.4,0,.48.04.05.38.07.47.08.05-.04.12.14.12.14-.14.12-.21-.06-.1.25,0,0,.26.02.3-.02l.09-.08c.09-.08.15-.29.15-.29l-.57-1.04.32.37s.05-.04.05-.13c.05-.04.1-.17.15-.21l.28.32.14-.12s-.31-.46-.39-.55c0-.09-.02-.3.03-.34-.04-.05-.03-.22-.07-.26-.27.15-.53.13-.77-.14l-.12-.14c.17.1.3-.02.4-.1l-.76-.88c-.12-.14-1.37-1.31-1.54-1.41-.16-.18-.51-.69-.83-.41.2.23.46.25.66.48.16.18.21.62.03.78-.13.03-.58-.3-.63-.26v.09s-.06.13-.02.17l.04.05c.48.55,1.3,1.05,1.82,1.65l.12.14c-.47-.08-.98-.76-1.42-.62.38.72,1.34,1.74,1.82,2.3v-.02ZM215.16,85.34l.56.65.13-.03-.52-.6h-.17v-.02ZM222.48,85.06l.37-.32,4.64-6.65.69-.6-.02-.3-6.2,3.17c-.5.27-1.6.66-2.07,1.06l-.05.04v.09l1.03,1.2c.04.05.11.31.1.4l.08.09c.09,0,.61.52.74.57l.08.09c.32.37.37.89.6,1.17h.01ZM218.86,82.63l.08.09c.09,0,.26.02.3-.02s.05-.13.01-.17-.25-.11-.42-.12c.04.05.03.13.03.22h0ZM220.15,83.21c-.21-.14-.41-.29-.6-.13.2.23.42.2.62.43.08.09.19.32.19.32l.03.22.25.1,1.23,1.43s.09,0,.17,0l.28-.24c-.76-.88-1.24-1.35-2.17-2.15h0ZM219.03,83.86c.08.09.2.23.36.33l1.83,2.12c.12.14.25.1.39,0l.05-.04c-.08-.09-.38-.63-.46-.73-.04-.05-.19-.4-.23-.45,0,0-.33-.2-.37-.24l-.08-.09s.02-.26-.07-.26c-.04-.05-.3-.07-.34-.03,0,0,.05-.13.01-.17l-.04-.05c-.2-.23-.77-.71-1.13-.56-.05.04,0,.09.07.18h.01ZM218.43,84.85c-.21-.14-.37-.24-.45-.34l.09-.08.36.42h0ZM218.93,85.15l-.35.06v-.09s.09,0,.09,0c.05-.04.18-.07.22-.03l.04.05h0ZM219.36,86.39c-.07-.18.64.65.52.6-.17,0-.57-.47-.52-.6ZM222.48,83.94s.25.19.16.18c-.05.04-.17-.1-.16-.18ZM218.24,88.55s.13-.03.09-.08-.13.03-.09.08ZM221.03,87.12s.13-.03.09-.08c-.08-.09-.17,0-.09.08ZM215.92,102.94l.08.09.09-.08c0-.09.34-.54.4-.66l-.08-.09c-.08-.09-.61-.52-.69-.61-.05.04-.22.03-.3.02l-.04-.05s-.15-.27-.15-.36l-.08-.09s-.13-.05-.17,0c-.17.55.58,1.43.94,1.84ZM216.68,101.96c.08.09.22-.03.14-.12-.04-.05-.18.07-.14.12Z"/>
      </g>
      <g>
        <path class="cls-3" d="M57.31,266.45l.28-.61c.5-1.11,1.11-2.17,1.66-3.39.8-1.78,1.52-3.66,2.34-5.49,2.13-4.72,4.7-9.24,6.85-14.02l.75-1.67c.35-.78.92-2.19,1.63-2.87.21-.17,2.16.24,2.55.28.06.02.77.08.82.1l.94.43c1.72.78,3.89,2.49,3.3,4.69l-.68,1.5c-1.05,2.33-2.13,4.72-3.31,7.06-.51.98-1.18,1.88-1.63,2.88l-.02.06c-.02.06-.04.25-.04.25l-.95,2.11s-.19-.02-.27.01l-.05.11c.03.08-.14.61-.11.69-.07.17-.45,1.14-.52,1.3-.51.24-1.56,3.31-2.65,3.95-.12-.19-.07-.43-.02-.54-.06-.02-.16.06-.16.06-.02.06-.31.53-.46.73l-.02.06c-.09.36-.34,1.05-.34,1.05l.09.11c-.19-.02-.39.42-.47.46l-.02.06c-.18.39-.07,1.04-.24,1.43-.07.17-.25-.04-.32.12l-.05.11c-.18.39-.46,1.33-.46,1.33l.17.21-.19.12-.3.67c.06.02.06.16.06.16-.05.11-.26.42-.31.53.67.3,1.41.43,2.05.65,1.61.59,2.61,1.04,3.94,1.64.61.28,1.26.77,1.89.99,1.94,2.08,1.75,4.73.62,7.23-.07.17-.42,1.08-.71,1.28-.88.61-2.86.85-3.75.45l-.28-.13c-.11-.05-1.36-.68-1.53-.76-1.72-.78-3.37-.38-5.15-1.18-1.17-.53-6.7-4.42-7.11-5.28-.06-.02-.12-.32-.15-.4.04-.25-.12-1.66-.05-1.96.43-2.15,1.48-4.48,2.41-6.53l-.03-.04ZM55.29,272.29c.08-.03.16-.2.1-.22-.03-.08-.16.2-.1.22ZM60.05,266.01c.06.02.18-.25.13-.28-.11-.05-.24.23-.13.28ZM71.91,242.21c.11.05.21-.17.1-.22s-.21.17-.1.22ZM64.22,260.47c.11-.09.36-.64.33-.72.02-.19-.43.81-.33.72ZM57.59,275.19c.06.02.11-.09.05-.11s-.13.14-.05.11ZM63.62,261.94l.17.07c.13-.28.24-.69.26-1.02-.02.06-.23.36-.26.42l-.05.11c-.05.11-.12.41-.12.41h0ZM62.87,264.34l.11.05c.28-.61.48-1.52.6-2.07l-.16.06-.55,1.96h0ZM62.23,265.32l.05-.11-.11-.05.06.16h0ZM59.55,271.73c.06.03.08-.03.02-.06-.09-.11-.14,0-.02.06ZM59.51,272.12l.1-.22c-.03-.08-.16.2-.1.22ZM59.71,275.82l.11.05.07-.17-.19.12h.01ZM60.16,276.15c.11.05.24-.23.13-.28-.06-.03-.18.25-.13.28ZM67.56,264.92c-.06-.02,0-.14.05-.11s0,.14-.05.11ZM67.14,265.86c-.08.03.04-.25.1-.22s-.02.19-.1.22ZM66,268.69c-.06-.02.02-.19.07-.17.03.08,0,.14-.07.17ZM67.99,265.31c-.1.22-.31.39-.53.43l.55-.62c.06.02,0,.14-.02.19ZM66.62,268.64l-.73,1.61c-.02.06-.16.06-.22.04l-.11-.05c-.06-.02-.09-.11-.06-.16.49.09.67-1.64,1.11-1.44h.01ZM68.48,264.06c-.11-.05.01-.33.13-.28.06.02-.07.3-.13.28ZM67.29,266.87l.4-.89c.06.16-.21.77-.4.89ZM67.12,267.53l.03.08-.08.03s-.08.03-.14,0l.13-.28c.06.03.09.11.06.16h0ZM66.73,268.09l.05-.11c.11.05.06.16-.05.11ZM67.05,269.77c-.06-.02,0-.14.02-.06.06.02.03.08-.02.06ZM68.45,278.08c.06.02.47.28.59.33l.08-.17-.78-.35s.06.16.12.19h-.01Z"/>
        <path class="cls-3" d="M85.72,274.65c0-.12.08-2.56.13-3.53.13-2.43.53-5.28.59-7.66.72-5.45,1.4-11.34,1.58-16.88.2-.23.77-.69,1.08-.74,1.55.63,3.57.56,5.21.65,2.86.15,5.67,0,8.54.15,1.89.1,3.82.39,5.64.61l4.91.69c1.88.28,2.26,2.2,2.18,3.78-.04.79-.48,5.59-2.06,5.5l-11.07-.59c-1.02-.24-2-.23-3.1-.29-.97-.05-2.08.13-3.05-.04-.19.17-.63,3.75-.63,3.87v.06l.05.12-.06.06c0,.24-.18,1.15-.2,1.39,0,.12-.22.6-.16.72,0,.12.15.62.21.68.29.2.48.15.85.17l7.64.9,2.56.14c.24.01,1.51.2,1.69.27,1.17.92,1.31,2.94,1.24,4.28-.09,1.64-.63,2.71-1.85,3.68-.13.12-.38.22-.39.41l-11.91-.88-.31.04v.24c-.12,2.07-.18,4.26-.17,6.4.05.19.08.8.08.8l.73.1,5.66.3c.12,0,1.15.24,1.21.25.43.02,3.78.14,4.2.23,1.83.1,4.9-.35,5.7,1.89.16.37.47,1.43.53,1.55l-.03.61c-.05.97-.63,4.97-2.17,5.19l-2.86-.15c-4.62-.25-9.16-.98-13.73-1.22-1.89-.1-3.75.59-5.64.49h-.12c-.24-.08-1.26-.38-1.44-.39-.48-.21-1.25-.62-1.22-1.22-.02-1.89-.03-10.74,0-12.63h-.04ZM87.03,262.76c.12,0,.13-.24,0-.24s-.14.24,0,.24ZM91.5,252.13c.19-.17.2-.36.21-.54.02-.3-.09-.55-.26-.87l-.02.37c-.02.43-.03.61.07,1.04h0ZM95.03,269.35h.12l.03-.48h-.12l-.03.48ZM94.57,285.92l.37.02.02-.43c-.24-.01-.37.1-.39.41ZM96.32,270.33c.12,0,.14-.24,0-.24-.06,0-.07.24,0,.24ZM100.12,254.18c.12,0,.13-.24,0-.24s-.13.24,0,.24ZM99.72,283.15s.6.15.78.16c.06,0,.43-.04.44-.22l-1.22-.07v.12h0ZM102.04,249.1c.06-.06.07-.12,0-.18-.12,0-.13.18,0,.18ZM104.95,252.85c.12,0,.13-.24,0-.24s-.13.24,0,.24ZM107.12,253.28c0,.12.18.13.24.01,0-.06-.24-.07-.24-.01ZM108.52,253.47l1.16.06v-.12l-1.27-.07.11.13ZM108.51,286.55h.24c1.03.07,1.95.12,2.02-1.16-.43-.02-.83.63-1.02.86l-1.16-.06c-.06,0-.43.04-.5.16.05.25.42.21.42.21h0ZM110.48,283.97c.02-.3-.35-.32-.59-.4s-.78-.16-.85-.17l-.07.12c.41.33,1.01.42,1.5.45h.01Z"/>
        <path class="cls-3" d="M131.81,291.05c-2.08-.51-4.59-1.14-6.32-2.58-4.33-3.71-5.65-9.9-5.74-15.32,0-.18.05-.61.05-.67.2-2.56.46-5.37.9-7.88-.19-.55.81-2.45.99-3,.75-2.57,1.19-5.57,2.98-7.61.36-.37,1.86-1.92,2.16-2.29,1.03-.38,1.93-1.25,2.9-1.75.24.06.3-.07.55-.13,1.52-.39,2.85-.66,4.38-.68,5.85-.1,10.64,1.95,12.98,7.4.31.54.93,1.14,1.13,1.81,0,.06.07.3.13.42.13.67.27,1.52.46,2.19.19.36.44.85.51,1.27.28,2.37.81,4.74.85,7.18,0,.3-.05.67-.23.92v.79c.03.73.1,1.46.11,2.13.03,1.83-.55,3.67-.88,5.44-.34,1.59-1.05,3.06-1.63,4.54-.35,1.04-.64,2.08-1.29,2.95-2.56,3.33-6.38,5.04-10.52,5.11h-.3c-.55.01-3.23-.06-3.84-.11-.06,0-.25-.12-.31-.12h-.02ZM124.89,252.77c0-.06.18-.06.12,0,0,.12-.06.12-.12,0ZM129.92,276.33c.72,2.73,2.56,7.27,5.91,7.21.61-.01.85-.2,1.64-.45,2-.89,2.23-1.68,2.69-3.4.06-.18.06-.31.11-.49l.46-1.71c.17-.92.09-1.95.08-2.8-.06-3.78-.19-7.43-1.22-11.13-.45-1.45-1.79-4.72-3.26-5.49-.31-.24-.98-.23-1.28-.22-3.47.06-4.82,3.62-5.56,6.37-.23.98-.21,2.08-.5,3.06,0,0-.24.13-.24.19v.37c.03,1.52.48,3.04.39,4.63.43.48.6,3.22.8,3.89l-.02-.03ZM130.24,244.45c.77-1.6,1.47-3.25,2.24-4.79.18-.25.42-.19.67-.26.06-.06,1.03-.26,1.09-.26.79-.14,3.97.79,3.99,1.7,0,.43-1.38,1.43-1.74,1.8-.06.06-.78.62-.84.68l-1.74,1.86c-.36.31-1.44,1.49-1.8,1.49l-1.16.02c-.37,0-.81-1.08-.81-1.33,0-.3,0-.61.11-.92h0ZM131.78,289.22h.12l-.12-.12v.12ZM132.4,282.69h.18c-.12-.18-.25-.3-.49-.3,0,.24.13.3.31.3h0ZM132.71,283.05h.12l-.12-.12v.12ZM132.19,240.77v-.06c-.06,0-.06.06,0,.06ZM140.23,288.11c.06,0,.06-.18,0-.18-.12,0-.12.18,0,.18ZM140.9,287.55c-.06,0-.06.06-.06.12h.06s.06-.06.06-.12v-.06l-.06.06ZM145.55,260.1v-.06c0-.12-.13-.36-.25-.36,0,.18.13.36.25.42h0ZM146.28,277.7h.12v-.25c-.06.06-.12.12-.12.25Z"/>
        <path class="cls-3" d="M165.49,282.12l-.71-2.07c-.04-.12-.47-.61-.49-.67-1.13-1.8-1.71-3.86-2.4-5.88-1.46-4.27-2.69-8.42-4.23-12.72,0-.19-.2-1.15-.26-1.33-.1-.29-1.04-2.67-1.2-2.94-.34-.98-.88-1.82-1.24-2.86l-.45-1.33c-.06-.17-.42-1.6-.48-1.77l-.83-2.42c-.54-1.94,2.19-2.81,3.63-3.31l.35-.12c.35-.12.65-.16,1-.28.81-.28,1.65-.63,2.4-.89,1.33-.45,2.5-.41,3.63.43.8.63,1.3,1.55,1.98,2.22,1.19,1.4,2.47,2.7,3.66,4.09,1.2,1.26,2.27,2.31,3.59,3.53,2.2,2.08,4.56,4.1,6.97,6.05.64.55.96,1.28,1.71,1.8l.1.29.12-.04c.06-.02-.52-2.27-.74-2.9-.12-.35-.29-.29-.43-.69.12-.04.25-.02.29.09.06-.02.08-.15.08-.15-.02-.06-.14-.21-.19-.19l-.55-1.61-.29-.29s-.51-.92-.69-1.25c-1.33-2.57-2.36-5.38-3.27-8.03l.12-.04c.06-.02.31.54.41.83.1.1.3.87.34.98.14.21.49,1.06.61,1.21l.06-.02-.97-2.82c-.16-.46-.58-.38-.76-.9.23-.08.41.05.52.21l-.57-1.67-.35.12s-.51-1.31-.77-1.86l-.02-.06c-.26-.75-.4-1.73-.35-2.52-.02-.06.03-.46.09-.48.05-.41-.18-1.1,0-1.16l.06-.02c.06-.02.15.08.21.06.23-.08.63-.41.88-.62.12-.04.84-.35,1.02-.41.23-.08,1-.28,1.06-.3.12-.04,1.85-.44,2.37-.62,1.33-.26,2.31.17,3.36.97l.04.12c.42,1.21.66,2.48.88,3.69l.2.58c.02.06.1.48.06.56,1.08,2.98,1.88,6.05,2.91,9.05l.24.69c2.2,5.3,5.06,10.44,6.94,15.92.08.23.24.5.06.75.71,1.88,1.21,3.71,1.49,5.67l-.08.16-.06.02-.83-.17-.35.12-.88.62-1.96.67c-1.73.59-2.96.76-4.69.96-.62.08-1.42.55-1.98.42-.7-.15-1.49-.97-2-1.51-.16-.27-1.68-2.26-1.97-2.55l-2.57-2.6c-.51-.54-1.14-.9-1.77-1.39-2.89-2.81-6.04-5.4-8.99-8.19l-.31-.15,1.74,5.07c.47.61.84,1.71,1.21,2.42l.02.06c.02.06.08.62.12.73l.04.12.17.13c.85,2.29,1.68,4.51,2.7,6.74.49,1.06,1.1,2.26,1.49,3.42l.28.81c-.7,1.72-2.72,2.03-4.22,2.73-.61.27-1.34.78-1.98,1-.75.26-3.13.82-3.55-.39-.1-.29-.69-1.63-.79-1.92h.02ZM171.66,280.77l.12-.04-.12-.35-.12.04.12.35ZM167.27,258.38l-.04-.12-.12.04.16.08h0ZM176.24,245.26c.08.04.17.13.23.11l.04.12-.35-.07.08-.15h0ZM175.58,242.78l.17-.06-.08-.23c-.1.1-.13.17-.09.29ZM176.14,244.39l.06-.02-.18-.52.12.54h0ZM175.9,243.51c.12-.04.06-.21-.06-.17-.06.02,0,.19.06.17ZM180.87,257.26c-.06.02-.2-.38-.12-.35.08.04.16.27.12.35ZM177.25,246.33c.06-.02.02-.13-.04-.12s0,.19.04.12ZM177.69,247.6c.02-.14-.14-.6-.24-.69-.1-.1.22.83.24.69ZM177.6,244.53l.08-.15-.49-1.44-.12.04.53,1.56h0ZM177.08,242.65c.04-.08.02-.14-.06-.17-.06.02,0,.19.06.17ZM181.16,246.08c.12-.04.06-.21-.06-.17-.06.02,0,.19.06.17ZM195.41,269.42c-.06.02-.1-.1-.04-.12.12-.04.13.02.04.12ZM195.72,269.76c-.17.06-.23-.11-.06-.17.12-.04.17.13.06.17Z"/>
      </g>
    </g>
  </g>
  <path class="cls-3" d="M94.94,5.32c.77-1.6,1.47-3.25,2.24-4.79.18-.25.42-.19.67-.26.06-.06,1.03-.26,1.09-.26.79-.14,3.97.79,3.99,1.7,0,.43-1.38,1.43-1.74,1.8-.06.06-.78.62-.84.68l-1.74,1.86c-.36.31-1.44,1.49-1.8,1.49l-1.16.02c-.37,0-.81-1.08-.81-1.33,0-.3,0-.61.11-.92h0Z"/>
</svg>